<svg width="917" height="708" viewBox="0 0 917 708" fill="none" xmlns="http://www.w3.org/2000/svg">
<path fill-rule="evenodd" clip-rule="evenodd" d="M231.204 425.106C235.873 421.924 245.42 410.534 250.422 407.902C261.545 402.049 311.097 390.543 312.708 389.863C315.162 388.828 331.103 385.21 340.391 382.925C362.2 377.557 440.356 342.889 460.956 334C463.586 340.92 485.296 371.468 481.572 374.599C469.31 384.906 447.331 397.74 433.127 405.126C421.639 411.1 409.471 416.044 397.187 420.08C383.24 424.664 373.668 429.578 359.768 434.266C346.093 438.879 362.436 453.306 369.459 456.287C377.336 459.631 389.537 461.328 397.586 464.226C383.415 486.251 371.514 512.982 369.133 539.365C368.56 545.714 363.72 551.535 355.847 549.634C351.785 548.653 314.301 543.661 308.189 542.267C267.386 532.962 194.137 484.233 213 434.266C217.321 436.262 227.187 427.844 231.204 425.106Z" fill="white"/>
<path fill-rule="evenodd" clip-rule="evenodd" d="M254.032 160C257.08 159.743 264.962 153.654 260.826 150.574C256.654 147.467 253.656 157.88 254.032 160ZM95.2456 183.353C96.0426 183.212 95.6946 178.852 94.4406 178.295C90.4806 176.537 90.1466 183.144 90.0496 184.912C89.9296 187.143 89.6496 193.428 94.4646 191.705C97.1976 190.727 95.5016 185.025 95.2456 183.353ZM329.001 203.723C328.894 207.615 336.757 215.099 339.688 210.61C342.154 206.838 329.203 195.975 329.001 203.723ZM51.0006 115.944C53.2786 121.756 64.5456 113.836 64.9646 109.573C65.8236 100.843 50.8826 110.136 51.0006 115.944ZM145 141C150.247 140.569 157.151 133.898 162.211 131.406C165.635 129.72 174.952 127.71 175.965 123.881C176.847 120.554 161.039 127.675 159.689 128.308C153.488 131.213 147.897 134.525 145 141ZM538.898 95C543.08 91.766 548.164 89.68 553.525 89.817C556.202 89.885 561.787 91.56 561.997 86.93C562.339 79.402 538.695 88.583 535 90.06C536.3 91.708 537.599 93.354 538.898 95ZM278 388.387C274.932 383.292 269.414 380.346 265.264 376C266.785 383.137 263.356 389.485 261 396C266.668 393.462 272.333 390.925 278 388.387ZM810.806 497C812.497 491.341 814.19 485.714 816.167 480.142C818.379 473.902 819.479 473.363 814.184 469C809.79 477.305 805.395 485.611 801 493.918C804.129 495.248 807.394 496.542 810.806 497ZM356 87.365C350.182 80.807 322.914 80.395 326.288 94.869C327.466 99.923 334.17 94.554 338.369 93.376C342.537 92.206 354.339 92.051 356 87.365ZM355 180.215C354.295 178.541 352.887 172.5 350.797 172.024C348.761 171.56 340.727 177.896 339.217 178.863C331.684 183.69 324.341 188.883 317 194C319.811 194 322.363 192.999 325.157 192.978C328.477 192.949 330.858 194.313 334.095 193.535C341.05 191.865 349.122 184.158 355 180.215ZM362.537 30.5703C363.19 27.5706 397.282 36.5753 401.379 38.2242C403.611 39.121 415.129 45.108 412.654 36.0848C411.245 30.9456 397.936 27.0279 393.671 25.6194C382.828 22.0405 371.396 19.4949 359.851 20.0853C357.609 20.1991 340.63 21.1788 347.72 28.0034C350.163 30.3537 358.92 29.613 362.537 30.5703ZM370 442.713C376.352 445.838 382.837 448.228 389.476 450.672C392.425 451.758 397.02 454.6 400.273 453.886C402.938 453.3 403.792 449.242 405.192 446.526C410.31 436.588 416.422 428.571 424 420.377C420.481 417.811 402.619 429.131 398.199 430.802C393.774 432.475 389.6 434.16 385.269 436.159C381.192 438.041 373.147 439.724 370 442.713ZM482.464 358C491.721 353.811 500.495 346.383 508.087 339.732C516.804 332.096 524.619 324.093 531 314.211C527.16 314.407 518.682 326.759 518.587 313.311C518.538 306.451 527.939 299.694 530.857 293.331C523.599 289.233 516.946 313.719 508.618 307.784C500.595 302.065 513.254 282.402 515.693 276.198C510.987 273.067 484.175 308.113 480.294 312.597C477.867 315.404 472.127 319.141 470.757 322.415C469.941 324.365 469.824 330.55 470.219 332.343C471.04 336.092 475.199 340.582 477.051 344.073C479.395 348.493 481.436 353.086 482.464 358ZM865.156 484.352C857.151 473.053 865.42 468.125 871.929 458.747C877.135 451.245 881.924 442.976 885.224 434.598C893.477 413.645 900.924 394.165 905 372C899.391 374.561 895.884 384.306 893.078 389.441C889.304 396.345 885.985 403.591 881.791 410.28C873.943 422.796 866.238 436.148 856.255 446.997C851.732 451.914 847.903 457.445 842.684 461.875C840.3 463.899 835.739 465.56 833.982 468.091C832.324 470.48 834.179 472.007 833.549 474.861C832.903 477.789 829.941 480.911 828.67 483.73C827.001 487.433 825.446 491.145 823.583 494.766C821.551 498.715 820.996 500.78 820.448 504.639C819.849 508.859 821.685 509.297 818 513.185C824.678 516.13 831.356 519.074 838.033 522.018C840.286 523.013 842.54 524.006 844.794 525C845.269 524.109 845.744 523.219 846.219 522.328C848.054 520.546 849.742 516.151 850.791 513.796C855.179 503.972 860.134 494.109 865.156 484.352ZM220.321 436.919C201.36 486.838 267.989 528.87 309.004 538.166C314.685 539.453 320.229 541.138 325.884 542.521C332.05 544.028 337.525 543.728 343.68 544.359C348.576 544.86 350.91 548.643 355.524 549.686C363.234 551.428 362.763 545.633 363.315 539.425C365.656 513.1 379.091 487.701 393.31 465.735C386.815 463.411 380.379 460.875 373.967 458.331C368.48 456.153 360.079 450.031 354.18 449.707C349.818 449.469 343.17 453.194 338.933 454.829C331.877 457.552 324.8 459.871 317.446 461.728C304.586 464.975 290.276 469.401 276.969 469.736C273.132 469.833 262.608 471.62 259.848 469.249C254.584 464.728 261.89 460.96 266.297 459.346C292.562 449.728 320.449 445.639 346.788 435.778C360.342 430.703 373.756 425.036 387.395 420.036C399.152 415.727 411.466 411.912 422.828 406.611C437.833 399.613 452.902 390.895 465.895 380.624C468.496 378.569 473.945 375.516 475.727 372.538C477.297 369.916 477.101 372.531 476.775 369.352C476.541 367.069 473.747 363.974 472.598 361.817C468.316 353.774 464.446 345.512 461.193 337C440.467 345.89 420.749 357.99 400.328 367.49C379.774 377.053 356.589 383.799 334.6 389.179C325.241 391.469 314.482 392.193 305.899 396.718C302.252 398.64 298.647 400.864 294.741 401.976C293.587 404.189 292.452 404.623 291.333 403.277C290.632 402.49 289.726 402.158 288.614 402.28C286.225 402.685 283.788 403.813 281.554 404.68C270.245 409.064 259.416 414.554 248.68 420.156C243.591 422.809 238.371 425.423 233.501 428.454C230.891 430.079 228.552 431.717 226.416 433.948C223.855 436.623 224.465 438.822 220.321 436.919ZM646.98 140.53C651.772 140.608 656.139 138.012 661.136 138.157C668.993 138.384 675.213 144.476 679.773 150.351C688.797 161.975 686.496 175.998 681.963 189.007C679.794 195.224 676.816 201.192 673.096 206.634C669.802 211.452 663.913 216.009 661.614 221.373C657.823 230.22 665.472 226.458 670.156 224.569C676.044 222.191 681.565 219.236 686.563 215.255C708.84 197.513 725.786 172.852 731.463 144.53C734.232 130.712 734.019 114.558 724.393 103.28C715.593 92.967 700.402 89.598 687.416 91.51C673.379 93.578 660.657 99.524 649.227 107.177C645.907 109.401 642.867 111.829 639.75 114.316C635.66 117.579 633.209 117.664 634.233 122.778C634.993 126.58 637.063 130.52 638.397 134.168C640.895 141.001 639.984 142.769 646.98 140.53ZM662.257 258.331L661.287 259.988C667.971 260.306 674.196 254.41 679.891 251.532C687.289 247.791 693.858 242.688 700.341 237.535C711.773 228.446 723.355 218.203 731.864 206.271C750.941 179.524 768.269 145.613 763.063 111.701C757.453 75.1521 725.485 61.0828 691.422 65.9212C676.071 68.1014 662.366 74.955 648.628 81.913C641.703 85.42 635.859 89.971 629.515 94.375C626.223 96.662 623.219 96.959 623.004 100.957C622.842 103.97 628.051 110.784 629.459 113.514C646.708 95.9181 665.297 81.361 691.346 80.461C722.336 79.391 740.661 108.775 740.525 136.913C740.392 164.508 728.49 191.052 709.517 210.884C700.895 219.897 692.674 227.129 682.086 233.707C676.808 236.986 672.915 239.93 667.014 242.107C662.84 243.648 663.275 242.836 662.21 246.7C661.305 249.979 662.229 254.926 662.257 258.331ZM493.866 633.241C493.462 638.214 492.452 643.11 491.327 647.96C490.923 649.702 488.648 655.201 489.047 657.159C489.706 660.396 488.829 658.315 491.665 660.003C494.623 661.766 498.067 661.66 501.306 662.195C503.305 662.526 510.63 665.973 511.862 665.429C514.016 664.477 513.948 661.121 516.311 659.791C519.531 657.977 524.276 659.531 527.313 660.95C535.434 664.737 541.013 672.578 548.87 676.87C562.824 684.491 579.382 688.71 594.949 690.451C603.383 691.394 612.013 693.049 620.342 691.073C626.904 689.516 635.433 689.659 639 682.618C607.299 673.9 558.913 663.231 546.379 626.851C539.565 633.029 528.178 629.702 519.944 628.849C510.885 627.911 502.79 628.129 494.505 624C493.899 627.246 493.714 629.94 493.866 633.241ZM213.185 407.923C228.108 408.824 242.256 401.762 251.439 389.847C253.7 386.912 256.018 383.917 257.375 380.44C257.67 379.559 257.963 378.677 258.257 377.796C259.682 375.363 259.058 374.215 256.387 374.352C254.882 372.288 251.066 371.594 252.152 367.853C252.969 365.031 255.986 364.985 258.608 364.097C257.302 361.903 256.521 360.802 254.652 358.851C249.795 363.22 240.98 371.796 237.567 361.758C235.927 356.939 238.813 352.333 238.098 347.685C237.804 345.762 235.367 340.851 233.954 339.702C226.431 333.577 215.596 336.112 207.614 339.717C202.113 342.202 200.929 343.368 200.032 349.064C199.121 354.856 198.275 360.646 197.264 366.421C200.565 364.701 201.166 360.985 203.319 358.309C204.125 359.777 204.932 361.247 205.741 362.715C206.877 362.078 207.938 362.111 208.922 362.817C210.515 365.266 209.513 368.898 209.023 371.465C214.335 370.97 216.58 376.896 211.225 379.296C205.678 381.782 203.176 375.004 202.988 370.614C200.918 373.086 198.792 371.763 197.349 373.033C195.908 374.303 195.34 376.95 194.827 379.849C193.984 384.612 191.827 391.484 193.823 396.262C196.786 403.359 206.233 407.052 213.185 407.923ZM645.611 179.975C640.674 186.842 632.255 195.831 630.494 204.127C635.933 200.936 647.432 185.579 650.394 197.812C652.095 204.834 643.373 213.201 641.23 220C649.807 217.178 655.916 208.34 661.268 201.519C668.092 192.822 675.059 181.358 676.801 170.299C678.21 161.35 672.002 153.009 662.778 152.132C658.066 151.684 653.146 152.432 648.594 153.525C646.518 154.022 643.422 154.64 641.569 155.752C639.243 157.149 638.925 160.419 636.733 157.699C633.822 163.186 630.911 168.673 628 174.158C630.897 173.107 636.809 168.645 639.975 169.106C644.599 169.781 645.549 176.497 645.611 179.975ZM183.281 45.6445C170.336 46.0261 156.805 48.7827 144.55 52.8805C141.507 53.899 128.668 57.5212 131.372 62.7721C133.159 66.2428 142.794 61.3384 145.707 60.5205C158.191 57.0147 171.045 54.7027 183.832 52.5928C186.928 52.0821 197.431 52.1326 197.973 48.0741C198.637 43.122 186.937 45.6389 183.281 45.6445ZM535.594 610.466C528.577 611.323 521.84 611.003 514.817 610.143C508.906 609.42 502.887 607 497.006 607C497.006 613.295 496.579 613.335 503.221 614.682C507.857 615.623 512.559 616.151 517.244 616.807C525.493 617.96 534.65 621.198 543 619.534C542.798 618.441 542.158 611.064 541.293 610.334C540.806 609.924 536.302 610.473 535.594 610.466ZM422.191 144.677C424.153 145.927 428.663 150.912 431 151C430.166 145.229 423.727 135.181 416.333 138.747C414.521 139.622 410.715 143.976 412.437 145.897C413.356 146.924 419.787 144.684 422.191 144.677ZM353.782 196.017C353.853 195.011 353.926 194.005 354 193C351.287 194.595 347.928 195.35 346 197.92C348.315 198.946 350.628 199.973 352.944 201C353.223 199.339 353.503 197.678 353.782 196.017ZM567.458 349.235C580.277 353.724 592.029 359.72 601.465 369.897C609.621 378.698 613.454 394.204 615.445 405.74C620.371 434.286 610.865 460.745 604.597 488.053C601.417 501.906 596.67 515.237 592.225 528.732C588.344 540.516 585.016 552.857 579.659 564.062C575.117 573.563 569.314 582.93 565.318 592.786C563.168 598.09 559.683 616.292 551.521 610.576C549.294 616.399 548.753 615.903 551.134 619.948C552.857 622.876 558.702 626.942 561.461 629.326C568.811 635.682 578.121 640.92 586.744 645.37C602.538 653.521 619.468 659.62 635.733 667.051C642.924 670.339 650.722 674.222 649.108 683.629C647.756 691.515 643.194 697.495 636.077 701.003C629.395 704.298 619.838 706.842 612.487 707.875C608.126 708.489 607.126 706.674 603.57 706.046C599.613 705.349 594.995 706.698 590.912 706.663C572.586 706.503 556.541 701.892 541.731 691.265C536.439 687.467 528.649 677.165 521.723 677.166C518.183 677.166 518.93 679.317 515.816 680.579C511.973 682.135 505.351 679.197 501.573 678.507C493.524 677.038 485.339 675.546 479.979 668.613C474.184 661.121 476.244 651.84 478.734 643.52C481.541 634.141 486.264 624.626 488.271 615.105C488.76 612.789 489.21 608.472 488.714 606.116C487.942 602.46 484.251 600.279 484.14 596.32C484.106 595.116 485.829 593.528 486.131 592.285C486.796 589.555 486.693 586.723 486.967 583.945C487.456 578.989 488.586 574.241 489.366 569.343C491.138 558.198 494.633 548.256 498.016 537.518C501.298 527.096 504.422 519.34 510.768 510.316C514.053 505.643 525.043 488.992 519.676 484.2C512.331 498.628 503.742 509.88 492.5 521.366C483.903 530.152 475.497 541.962 464.736 548.219C452.905 555.099 438.447 559.146 425.382 562.784C419.168 564.513 414.012 568.349 407.313 569.059C400.053 569.826 392.664 568.921 385.553 567.302C383.552 566.847 377.779 563.771 375.968 563.967C373.3 564.257 369.462 569.013 366.534 569.886C359.407 572.012 354.54 567.951 349.134 564.198C343.267 560.124 341.492 559.112 334.722 558.621C326.43 558.022 318.366 555.099 310.21 553.309C295.87 550.163 283.681 543.787 270.647 537.112C255.706 529.463 242.926 518.914 231.664 506.452C215.109 488.131 192.053 437.364 219.097 419.589C203.176 417.427 188.595 410.474 186.654 392.455C185.64 383.026 187.549 372.581 189.92 363.492C191.002 359.342 192.292 355.218 193.528 351.111C194.459 349.724 194.952 348.207 195.003 346.557C195.574 344.42 194.751 343.355 192.532 343.365C188.339 338.462 185.186 334.134 184.339 327.172C184.072 324.966 183.833 321.584 185.403 319.708C186.129 318.954 187.006 318.45 188.029 318.197C190.487 318.338 191.181 317.127 190.113 314.566C191.306 310.938 189.536 308.111 194.033 306.597C195.474 306.903 196.909 307.239 198.338 307.602C200.162 308.434 201.348 307.831 201.9 305.8C206.136 304.142 204.182 301.691 209.938 303.824C213.421 305.115 216.735 307.338 219.272 310.046C222.454 308.003 215.217 295.378 214.976 291.35C214.403 281.855 218.329 274.005 223.436 266.206C233.363 251.05 247.219 238.018 260.883 226.292C287.055 203.836 314.55 182.458 344.102 164.567C331.911 156.1 317.668 153.805 303.162 157.74C289.789 161.368 278.949 167.957 266.639 173.72C255.235 179.057 243.13 181.25 239.494 166.685C235.42 150.37 248.418 144.313 260.077 136.997C257.166 134.826 247.582 136.378 243.957 136.635C235.883 137.206 228.161 139.029 220.315 140.641C216.552 141.413 213.095 141.239 209.367 141.996C203.825 143.121 198.038 144.381 192.431 145.984C179.091 149.799 165.85 155.589 154.323 163.391C144.36 170.131 137.448 179.648 129.421 188.413C120.267 198.407 111.495 208.241 97.9236 211.899C91.5686 213.613 84.1136 215.168 79.6086 209.492C75.4166 204.214 75.1826 197.853 75.3206 191.4C75.6236 177.145 82.5096 161.742 90.5196 150.094C99.2146 137.45 110.861 130.209 121.864 120.032C105.96 121.169 90.5896 129.552 75.9636 135.347C72.8856 136.567 69.7786 137.938 66.6836 139.066C63.3836 140.27 61.1976 139.533 58.0356 140.084C50.8206 141.343 44.6225 144.384 37.604 139.536C24.3254 130.365 37.629 111.708 46.7716 105.983C59.5056 98.01 72.4606 91.297 86.4896 85.61C78.8946 77.372 85.3806 65.6156 92.3816 59.7715C101.239 52.3764 112.518 48.1388 123.191 44.1802C131.631 41.0492 139.921 38.0431 148.689 36.1589C157.907 34.1789 168.685 31.1534 178.038 31.4436C186.81 31.7158 194.588 30.1704 203.472 29.9232C210.864 29.7177 218.273 29.8955 225.664 29.7039C245.55 29.1901 265.509 30.5314 284.944 31.9615C269.546 -13.067 370.973 0.838748 392.612 6.72035C412.277 12.066 434.809 18.2669 451.327 30.9507C458.325 36.3228 464.971 42.4308 471.18 48.6984C480.34 57.9457 485.411 70.056 490.256 82.009C502.546 75.989 514.296 69.4284 527.743 66.4431C540.538 63.6037 553.645 59.7548 566.515 57.6096C576.3 55.9781 590.503 54.8716 598.738 61.7807C607.682 69.2854 612.342 80.964 617.681 90.965C643.321 66.6361 671.92 48.8871 708.477 50.0674C744.249 51.2226 767.772 82.114 772.109 115.588C776.886 152.474 760.455 191.016 738.183 219.58C728.196 232.39 717.862 244.762 704.42 254.319C697.754 259.056 690.722 264.246 683.413 267.945C679.768 269.789 675.783 271.455 671.957 272.874C670.23 273.515 668.452 274.157 666.656 274.592C661.528 275.836 662.524 274.175 660.617 278.664C659.07 282.309 659.26 288.58 658.597 292.58C657.84 297.152 657.39 301.787 656.285 306.297C654.369 314.114 652.375 321.739 649.976 329.373C645.434 343.82 639.322 358.381 631.836 371.56C638.185 374.317 647.076 374.595 653.861 375.431C661.204 376.334 668.558 378.234 676.186 380.367C691.47 384.64 705.128 388.248 719.662 394.646C734.751 401.288 748.199 411.206 762.728 419.1C776.088 426.359 789.593 435.451 802.001 444.165C804.953 446.238 806.781 448.04 809.131 450.666C811.535 453.348 812.3 453.873 815.173 456.197C816.469 457.244 820.236 462.529 821.715 462.723C824.364 463.074 823.957 461.097 826.036 458.337C830.378 452.575 836.434 448.111 840.745 442.203C844.341 437.276 848.092 432.288 851.935 428.051C861.237 417.799 868.944 406.435 875.557 394.145C878.999 387.746 882.623 381.657 886.361 375.618C890.082 369.606 896.697 361.671 904.108 362.026C903.512 358.965 901.619 358.455 904.886 356.583C906.99 355.377 911.086 357.321 912.708 358.545C917.006 361.789 917.19 368.081 916.92 372.808C916.222 384.989 913.674 397.013 910.121 408.531C905.851 422.377 900.499 434.592 894.658 447.807C890.008 458.334 884.234 472.255 872.663 477.059C880.434 488.155 876.702 497.196 871.508 508.976C867.712 517.588 862.698 526.486 855.061 532.185C846.453 538.609 837.116 533.159 828.113 528.913C822.675 526.348 806.046 520.295 809.428 512.402C805.274 511.848 802.661 508.83 798.88 507.902C794.877 506.919 795.565 508.544 791.33 509.154C788.082 509.621 783.225 506.713 780.168 505.672C775.06 503.935 769.968 502.153 764.868 500.397C750.513 495.452 736.4 490.584 721.903 486.623C694.93 479.253 667.624 475.072 640.746 468.491C635.358 467.172 630.001 465.899 624.391 464.842C623.233 464.624 617.222 464.289 616.492 463.049C615.213 460.876 619.145 448.716 619.482 446.238C621.698 429.97 620.974 412.161 617.853 396.079C616.557 389.393 610.768 380.736 610.818 374.21C610.853 369.832 614.732 365.052 617.01 361.086C622.644 351.281 628.547 340.687 632.721 330.483C639.11 314.873 643.024 297.253 645.847 280.535C647.316 271.819 649.027 262.371 649.427 253.554C649.733 246.833 649.181 239.784 650.157 232.901C646.437 233.254 641.174 235.181 637.824 233.118C633.593 230.515 632.457 223.082 632.997 218.643C618.511 221.171 618.992 207.434 619.889 196.691C593.708 196.691 627.237 157.787 631.426 149.433C633.351 145.592 633.294 149.906 632.444 143.966C632.071 141.355 630.286 138.461 629.276 136.06C627.076 130.819 624.697 125.658 622.156 120.573C616.788 109.833 610.707 99.456 604.07 89.45C598.096 93.613 592.711 98.541 587.722 103.828C590.922 95.458 600.701 85.089 596.518 75.585C592.642 66.775 579.695 67.3859 572.049 68.9965C551.272 73.377 531.346 79.757 511.553 87.144C517.684 90.66 527.071 87.944 533.163 85.256C540.706 81.926 548.818 78.433 556.948 76.669C564.038 75.131 573.35 75.656 571.301 85.206C569.64 92.944 562.072 100.396 557.078 106.182C546.075 118.929 532.278 128.797 518.726 138.657C504.158 149.256 490.121 160.772 475.369 171.064C448.702 189.67 420.029 205.84 392.477 223.207C378.16 232.231 361.937 239.493 346.41 246.181C329.33 253.538 312.954 261.415 295.234 267.226C285.393 270.454 275.639 273.11 265.969 276.783C259.908 279.084 249.353 283.695 245.348 276.862C237.215 262.984 266.648 244.733 274.714 236.248C280.278 241.652 252.839 261.789 254.987 269.657C256.674 275.84 263.201 267.856 266.353 266.171C271.446 263.447 277.478 262.078 282.597 258.97C293.096 252.596 305.544 245.245 307.941 232.068C306.273 230.308 306.294 228.683 308.004 227.193C308.765 226.288 309.369 225.294 309.814 224.21C310.561 222.139 310.861 219.546 311.261 217.35C312.443 210.861 309.476 204.785 312.249 198.434C296.068 210.694 280.515 224.543 265.155 237.815C251.378 249.72 237.002 265.309 231.939 283.073C231.291 285.349 230.213 287.931 230.331 290.333C230.561 295.049 231.032 294.032 234.831 295.548C238.631 297.065 244.164 296.934 248.25 297.095C250.579 297.185 260.981 294.719 258.913 299.83C257.721 302.777 250.51 302.666 247.928 302.938C241.448 303.622 237.934 302.92 241.004 309.944C242.38 313.092 245.168 315.225 247.355 317.661C253.442 324.44 256.748 334.837 261.536 342.801C266.991 351.874 272.988 360.502 279.359 368.952C281.988 372.438 285.502 378.991 289.147 381.479C292.55 383.802 288.546 383.61 294.199 382.666C296.663 382.256 298.896 380.653 301.253 380.079C315.346 376.646 329.832 372.776 344.406 368.538C363.048 363.117 382.611 358.495 400.397 350.689C416.33 343.694 432.145 335.367 448.245 328.283C452.947 326.216 457.643 324.845 461.297 321.04C465.708 316.448 469.36 310.436 473.428 305.5C480.347 297.103 486.724 288.563 494.171 280.606C499.715 274.685 509.539 263.679 517.36 261.315C532.221 256.826 524.266 279.461 522.345 285.182C525.839 285.975 527.675 281.494 531.775 282.783C536.684 284.327 537.192 290.855 537.806 294.946C537.969 296.036 536.494 298.073 536.942 299.045C537.095 299.376 540.298 301.27 540.916 302.148C543.159 305.337 542.718 309.215 541.868 312.654C537.47 330.469 521.838 343.477 510.342 356.618C515.485 355.645 519.298 352.714 524.153 351.261C528.71 349.898 533.291 349.969 537.884 349.578C542.693 349.169 547.312 347.369 552.232 347.278C557.395 347.182 562.338 348.652 567.458 349.235Z" fill="black"/>
<path fill-rule="evenodd" clip-rule="evenodd" d="M23.7372 189C20.9022 190.853 20.1031 192.671 20.0052 196.946C19.966 198.699 20.0869 205.24 22.5373 204.993C24.8368 204.762 23.7372 191.249 23.7372 189ZM9.09243 199.653C10.4134 185.952 15.426 172.021 27.2179 163.484C30.1341 161.373 33.433 161.448 36.6291 160.116C38.5499 159.316 41.5846 155.596 43.7653 156.036C51.7926 157.66 42.5186 168.326 41.1605 171.132C36.9518 179.825 37.236 187.463 37.3617 196.841C37.4574 203.968 38.9383 215.983 35.3452 222.434C31.5151 229.303 23.2078 224.842 18.5707 220.777C12.7184 215.644 8.29843 207.471 9.09243 199.653Z" fill="black"/>
<path fill-rule="evenodd" clip-rule="evenodd" d="M150.011 240.142C150.011 247.787 156.216 242.611 155.995 237.173C155.67 229.167 149.721 234.097 150.011 240.142ZM183 197.876C176.209 203.984 170.97 207.411 169.661 216.803C168.67 223.917 169.655 230.963 169.697 238.129C169.768 250.141 160.068 262.769 149.63 249C142.016 238.957 144.747 223.165 150.956 213.071C154.214 207.776 158.865 202.537 164.238 199.237C168.279 196.753 179.647 191.866 183 197.876Z" fill="black"/>
<path fill-rule="evenodd" clip-rule="evenodd" d="M88.1514 383C87.3644 384.863 85.5154 392.469 89.2874 390.749C92.6164 389.229 90.4594 384.187 88.1514 383ZM68.2244 359.517C67.6424 356.657 67.8794 338.727 72.8184 340.072C76.6974 341.126 77.3384 350.304 78.9184 353.498C84.8034 365.393 98.3104 372.8 102.968 385.077C108.167 398.787 92.4484 399.213 84.1074 393.661C74.2314 387.087 68.5174 370.99 68.2244 359.517Z" fill="black"/>
<path fill-rule="evenodd" clip-rule="evenodd" d="M56.1178 286C58.2608 283.106 58.4778 281.56 57.2558 279C55.6938 280.699 55.9708 283.127 56.1178 286ZM57.6688 298.945C46.4948 300.196 45.9355 279.605 47.8488 272.535C49.3728 266.904 52.6488 260.854 56.0218 256.266C56.7028 255.34 63.1628 247.021 64.4288 247.001C69.2888 246.924 67.9538 252.415 67.4288 254.459C65.7778 260.899 65.1238 266.281 65.5678 273.421C66.0448 281.061 69.6628 299.199 57.6688 298.945Z" fill="black"/>
<path fill-rule="evenodd" clip-rule="evenodd" d="M565 120.618C549.023 134.017 533.855 148.523 516.482 160.243C507.981 165.979 499.094 171.053 490.611 176.882C486.291 179.851 481.883 182.509 477.09 184.691C472.856 186.619 470.088 186.87 473.601 182.294C475.949 179.237 481.212 177.107 484.411 174.934C489.333 171.587 493.982 167.875 499.16 164.906C508.288 159.669 517.361 155.441 525.775 149.019C533.244 143.32 540.949 137.756 548.077 131.699C551.134 129.102 561.269 117.178 565 120.618Z" fill="black"/>
<path fill-rule="evenodd" clip-rule="evenodd" d="M565.323 169C572.508 175.146 554.531 191.984 550.431 195.8C546.108 199.825 541.347 203.415 536.645 206.98C534.99 208.236 525.96 216.639 523.668 215.961C519.146 214.622 525.083 209.17 526.627 207.749C531.62 203.145 536.72 198.677 541.602 193.949C546.005 189.689 550.773 185.744 555.031 181.346C558.48 177.783 561.378 171.746 565.323 169Z" fill="black"/>
<path fill-rule="evenodd" clip-rule="evenodd" d="M33 416.756C31.124 412.409 27.7642 417.235 29.4675 419.406C31.0784 421.461 32.7601 417.591 33 416.756ZM22 408.172C23.0057 401.78 25.3299 398.228 31.3264 403.684C35.4469 407.433 43.7341 418.094 42.9477 423.906C41.9155 431.529 33.5193 429.366 29.1669 425.38C24.7056 421.294 22.7361 413.84 22 408.172Z" fill="black"/>
<path fill-rule="evenodd" clip-rule="evenodd" d="M35.1399 533.975C27.7941 533.416 21.5271 527.776 18.4076 521.167C15.7829 515.609 13.2986 506.65 22.5197 509.571C28.5295 511.476 51.697 534.871 35.1399 533.975Z" fill="black"/>
<path fill-rule="evenodd" clip-rule="evenodd" d="M124.164 497.74C118.487 499.033 112.872 495.294 109.381 491.078C107.209 488.452 102.154 479.247 104.701 475.458C108.251 470.173 113.611 480.796 115.46 482.899C118.36 486.192 127.844 492.49 124.164 497.74Z" fill="black"/>
<path fill-rule="evenodd" clip-rule="evenodd" d="M129.277 354C124.827 351.935 120.696 349.449 118.906 344.517C117.768 341.376 116.812 331.957 121.866 332C127.712 332.052 141.098 353.057 129.277 354Z" fill="black"/>
<path fill-rule="evenodd" clip-rule="evenodd" d="M98.0789 256.003C104.037 255.895 105.448 259.181 106.276 263.902C106.839 267.106 109.568 277.983 106.734 280.211C102.684 283.395 96.2409 276.1 94.9389 273.236C92.2549 267.34 95.9659 261.541 98.0789 256.003Z" fill="black"/>
<path fill-rule="evenodd" clip-rule="evenodd" d="M200.458 582.138C203.359 583.458 209.959 586.385 207.437 590.927C204.8 595.677 197.229 591.061 194.401 588.985C193.217 588.116 185.695 582.428 186.01 580.521C186.673 576.467 197.042 581.757 200.458 582.138Z" fill="black"/>
<path fill-rule="evenodd" clip-rule="evenodd" d="M9.3264 285.508C11.3088 290.472 13.5403 307.526 3.1011 298.317C-0.0845985 295.506 -0.5654 291.996 0.5322 288.137C2.1193 282.545 4.429 283.654 9.3264 285.508Z" fill="black"/>
<path fill-rule="evenodd" clip-rule="evenodd" d="M562.538 222C560.226 217.277 565.933 214.231 568.983 211.187C570.974 209.199 579.347 198.416 582.092 199.025C587.739 200.278 565.314 219.894 562.538 222Z" fill="black"/>
<path fill-rule="evenodd" clip-rule="evenodd" d="M98.0039 564.086C103.451 563.212 104.722 569.262 108.231 571.899C109.736 573.031 114.902 574.025 113.863 576.427C111.133 582.733 97.7369 568.326 98.0039 564.086Z" fill="black"/>
<path fill-rule="evenodd" clip-rule="evenodd" d="M144 421.192C147.744 419.625 158.55 428.043 155.447 431.68C150.809 437.121 144.264 424.169 144 421.192Z" fill="black"/>
<path fill-rule="evenodd" clip-rule="evenodd" d="M222.917 542.986C220.188 543.257 208.671 539.637 212.938 534.79C215.934 531.385 223.896 539.904 222.917 542.986Z" fill="black"/>
<path fill-rule="evenodd" clip-rule="evenodd" d="M85 519.728C82.291 520.811 72.519 518.583 75.591 514.339C78.518 510.299 85.004 516.374 85 519.728Z" fill="black"/>
<path fill-rule="evenodd" clip-rule="evenodd" d="M165 538.037C168.168 537.708 170.456 539.618 171 542.852C167.038 543.417 165.816 542.475 165 538.037Z" fill="black"/>
<path fill-rule="evenodd" clip-rule="evenodd" d="M577 68.4906C578.338 68.4966 579.674 68.5036 581 68.5096C579.66 68.5026 578.331 68.4966 577 68.4906Z" fill="black"/>
<path fill-rule="evenodd" clip-rule="evenodd" d="M556 346.996C553.999 346.998 551.999 347.002 550 347.004C552.001 347 554.001 346.998 556 346.996Z" fill="black"/>
<path fill-rule="evenodd" clip-rule="evenodd" d="M283.139 21C283.047 23.0023 282.955 25.0046 282.861 27C282.951 24.996 283.045 22.9971 283.139 21Z" fill="black"/>
<path fill-rule="evenodd" clip-rule="evenodd" d="M902.806 361C903.444 363.225 902.51 363.594 900 362.106C900.934 361.737 901.87 361.369 902.806 361Z" fill="black"/>
<path fill-rule="evenodd" clip-rule="evenodd" d="M846 535.491C847.004 535.497 848.007 535.504 849 535.51C847.993 535.504 846.997 535.497 846 535.491Z" fill="black"/>
<path fill-rule="evenodd" clip-rule="evenodd" d="M656 374.525C654.323 375.803 652.655 375.983 651 374.457C652.667 374.481 654.333 374.503 656 374.525Z" fill="black"/>
<path fill-rule="evenodd" clip-rule="evenodd" d="M618.565 204C618.523 205.669 618.48 207.337 618.436 209C618.478 207.329 618.522 205.664 618.565 204Z" fill="black"/>
<path fill-rule="evenodd" clip-rule="evenodd" d="M705 49.6998C703.333 49.6988 701.665 49.6968 700 49.6948C701.668 49.0708 703.335 49.2758 705 49.6998Z" fill="black"/>
<path fill-rule="evenodd" clip-rule="evenodd" d="M216 29.353C214.334 29.451 212.666 29.549 211 29.647C212.666 29.549 214.334 29.451 216 29.353Z" fill="black"/>
<path fill-rule="evenodd" clip-rule="evenodd" d="M257 29.6701C255.667 29.5571 254.332 29.4431 253 29.3301C254.332 29.4431 255.665 29.5571 257 29.6701Z" fill="black"/>
<path fill-rule="evenodd" clip-rule="evenodd" d="M279 31.2549C277.667 31.7519 276.334 32.0459 275 31.2619C276.334 31.2599 277.667 31.2569 279 31.2549Z" fill="black"/>
<path fill-rule="evenodd" clip-rule="evenodd" d="M160 33.993C158.332 34.332 156.666 34.671 155 35.007C156.668 34.671 158.334 34.332 160 33.993Z" fill="black"/>
<path fill-rule="evenodd" clip-rule="evenodd" d="M619.568 441C619.522 442.002 619.476 443.003 619.432 444C619.479 442.997 619.523 441.998 619.568 441Z" fill="black"/>
<path fill-rule="evenodd" clip-rule="evenodd" d="M68.4727 360C68.4927 360.668 68.5117 361.336 68.5297 362C68.5077 361.33 68.4917 360.665 68.4727 360Z" fill="black"/>
<path fill-rule="evenodd" clip-rule="evenodd" d="M909 356.412L904 356.438C905.663 355.196 907.33 355.354 909 356.412Z" fill="black"/>
<path fill-rule="evenodd" clip-rule="evenodd" d="M567 349.33C565.665 349.11 564.332 348.89 563 348.67C564.332 348.89 565.667 349.11 567 349.33Z" fill="black"/>
<path fill-rule="evenodd" clip-rule="evenodd" d="M201 581.987C199.333 581.663 197.667 581.337 196 581.013L201 581.987Z" fill="black"/>
<path fill-rule="evenodd" clip-rule="evenodd" d="M537.545 295C537.514 293.999 537.483 292.998 537.453 292C537.483 293.001 537.514 294.001 537.545 295Z" fill="black"/>
<path fill-rule="evenodd" clip-rule="evenodd" d="M221 29.6846C220 29.5616 218.999 29.4386 218 29.3156C218.999 29.4386 220 29.5616 221 29.6846Z" fill="black"/>
<path fill-rule="evenodd" clip-rule="evenodd" d="M385 4.95453C384 4.65153 382.999 4.34853 382 4.04553C383 4.34853 384 4.65153 385 4.95453Z" fill="black"/>
<path fill-rule="evenodd" clip-rule="evenodd" d="M504 679.439C504.669 679.48 505.339 679.521 506 679.561C505.328 679.52 504.663 679.479 504 679.439Z" fill="black"/>
<path fill-rule="evenodd" clip-rule="evenodd" d="M45 142.46C46.004 142.486 47.008 142.513 48 142.54C46.991 142.513 45.9955 142.486 45 142.46Z" fill="black"/>
<path fill-rule="evenodd" clip-rule="evenodd" d="M716 50.6761C714.333 50.5591 712.667 50.4421 711 50.3241C712.668 50.4421 714.333 50.5591 716 50.6761Z" fill="black"/>
<path fill-rule="evenodd" clip-rule="evenodd" d="M189 45.994C186.661 45.998 184.325 46.002 182 46.006C184.344 46.002 186.672 45.998 189 45.994Z" fill="black"/>
<path fill-rule="evenodd" clip-rule="evenodd" d="M661.451 252C661.481 253.669 661.514 255.338 661.547 257C661.517 255.33 661.487 253.664 661.451 252Z" fill="black"/>
<path fill-rule="evenodd" clip-rule="evenodd" d="M539 610.032C537.662 610.012 536.327 609.99 535 609.968C536.34 609.986 537.67 610.01 539 610.032Z" fill="black"/>
<path fill-rule="evenodd" clip-rule="evenodd" d="M681 80.1941C683 79.9721 684.999 79.7501 687 79.5281C685.08 81.2261 683.007 80.0961 681 80.1941Z" fill="black"/>
<path fill-rule="evenodd" clip-rule="evenodd" d="M528 610.555C526.997 610.517 525.995 610.48 525 610.444C526.007 610.482 527.003 610.518 528 610.555Z" fill="black"/>
<path fill-rule="evenodd" clip-rule="evenodd" d="M493.424 628C493.474 629.67 493.525 631.338 493.576 633C493.527 631.327 493.475 629.664 493.424 628Z" fill="black"/>
<path fill-rule="evenodd" clip-rule="evenodd" d="M646 141.598C647.334 141.474 648.667 141.35 650 141.227C648.783 142.165 647.354 141.616 646 141.598Z" fill="black"/>
<path fill-rule="evenodd" clip-rule="evenodd" d="M209 407.633C210.333 407.879 211.668 408.123 213 408.367C211.667 408.123 210.333 407.879 209 407.633Z" fill="black"/>
<path fill-rule="evenodd" clip-rule="evenodd" d="M417 144.504C418.664 143.086 420.331 143.24 422 144.488C420.333 144.492 418.667 144.498 417 144.504Z" fill="black"/>
<path fill-rule="evenodd" clip-rule="evenodd" d="M354.428 195C354.476 194.333 354.523 193.666 354.574 193C354.528 193.668 354.478 194.334 354.428 195Z" fill="black"/>
<path fill-rule="evenodd" clip-rule="evenodd" d="M645.479 176C645.493 177.336 645.506 178.671 645.521 180C645.508 178.661 645.494 177.331 645.479 176Z" fill="black"/>
<path fill-rule="evenodd" clip-rule="evenodd" d="M204.284 385.031C206.478 385.775 210.891 388.022 213.448 387.724C215.495 387.485 217.182 384.997 219.156 385C224.471 385.007 223.485 391.151 220.917 394.449C213.972 403.371 198.453 393.697 204.284 385.031Z" fill="black"/>
<path fill-rule="evenodd" clip-rule="evenodd" d="M225.977 353C233.225 354.871 229.615 370.814 223.522 371.91C216.348 373.202 215.098 360.238 216.515 355.552C220.207 357.746 217.921 365.572 222.574 363.409C225.533 362.032 225.083 355.666 225.977 353Z" fill="black"/>
</svg>
