<svg width="374" height="405" viewBox="0 0 374 405" fill="none" xmlns="http://www.w3.org/2000/svg">
<rect width="374" height="405" fill="#291A1A"/>
<path d="M90.9363 178.905L89.5871 187L89.0474 195.095L89.5871 202.921V209.397L90.3966 217.222C91.2061 219.831 92.8791 225.102 93.095 225.318C93.3109 225.534 94.4442 229.005 94.9839 230.714C95.7934 232.423 97.4125 236.003 97.4125 236.651C97.4125 237.299 99.931 240.879 101.19 242.588L104.428 246.095L103.349 246.635H100.381H96.6029L91.476 247.175L86.349 246.095L83.9204 243.937L82.0315 240.699L81.7617 238L80.9521 234.762L80.4125 231.794C79.8728 231.344 78.7394 230.391 78.5236 230.175C78.3077 229.959 77.714 229.725 77.4442 229.635L76.6347 228.286L74.2061 226.397L72.0474 224.508L69.8886 223.968H67.1902V225.318V226.937L67.9998 228.016L67.7299 228.286H66.1109H64.4918L63.4125 228.826L61.7934 230.175L62.3331 231.524L63.9521 232.873L66.1109 233.683V235.032H64.4918L61.5236 235.841L60.9839 236.651V238L62.3331 239.08L64.4918 239.619L67.1902 240.429L69.349 241.778H71.5077L72.5871 243.127L73.9363 245.286V248.524H72.5871L71.5077 249.064L70.4283 250.143V252.842H69.349L68.2696 253.111L67.1902 254.191L65.3013 255.27L64.4918 256.08L65.0315 256.889L66.6506 257.429L70.4283 257.159H73.3966H75.0156H76.6347L77.4442 255.81L78.5236 254.461L80.6823 253.111L81.7617 252.032L82.841 252.302L86.0791 253.111L89.5871 254.461L94.9839 256.08L97.9521 258.508H105.778L109.016 257.429L111.174 259.048L114.412 262.016L118.46 263.635L119.539 264.445L120.349 268.762L121.428 271.461L119.539 272L115.762 274.159L112.524 277.397L109.555 280.365L107.127 283.603L104.968 284.413H100.381L97.1426 283.064L94.9839 281.984L94.1744 280.365H91.2061L88.7775 281.984L87.1585 284.413H86.0791L83.6506 286.302L81.222 289.81L80.6823 291.969H82.5712L84.9998 291.429L84.4601 293.048V296.016L85.5394 295.207H87.1585L89.5871 294.127L91.2061 293.588H93.095L91.2061 296.826L90.6664 300.064L93.095 299.524L97.1426 298.445L99.0315 297.905L100.381 298.984L103.349 297.635H106.317L110.365 296.016L111.984 294.127V292.508L113.873 291.429L119 287.921L124.127 283.064L127.635 280.365L130.603 276.857L133.032 273.08L134.111 270.381H136.27L140.317 271.461L141.936 272V274.159L143.555 275.778L144.095 276.857L142.746 278.476L140.857 280.365L138.428 281.984L136.27 283.064L132.492 282.524L129.793 283.064L128.174 285.223L127.095 286.032L124.936 286.842L122.238 290.35L120.349 292.508V294.667L123.317 294.127L122.238 296.016V297.635L124.936 297.905L128.174 297.635L132.492 296.826L131.412 297.635V298.984L132.492 299.524H136.27L137.889 298.984H141.936L145.984 299.524H149.492L151.92 298.445L152.46 296.826L153 295.207L154.079 294.127L156.508 291.969L158.666 290.35L161.635 287.381L163.254 284.413V280.905L162.444 277.667V274.969L163.254 271.461L166.492 268.762L169.19 266.873L169.73 268.762L171.619 271.461L174.317 274.159L179.444 276.857L186.73 279.826L196.174 283.064L201.841 285.223L201.301 287.921L199.952 289.81H196.174H193.476L192.127 290.889L189.158 292.508L185.381 295.207L182.412 298.445L181.333 301.413H184.301H186.73L189.428 301.143L192.127 300.604L191.317 301.413L189.968 303.572L189.158 306H190.508L194.016 305.73L196.984 304.921H199.952V306V309.508L203.73 308.429L205.889 307.08H211.016L215.873 306L218.032 303.842L218.571 300.604L217.222 296.286L218.032 293.588L218.571 290.889V286.572L219.651 287.381L223.428 289.27L227.206 293.588L230.714 297.905L232.873 302.492V307.619L229.635 313.556L221 317.064L204.809 318.143L192.127 317.064L179.984 315.445L173.238 314.635L167.301 313.556L162.444 312.207L155.158 311.667L141.936 312.207L134.111 313.016L127.905 314.635L121.698 316.794L116.032 319.223L111.174 323L106.587 328.667L111.174 326.778L117.92 324.08L121.158 322.191L126.016 320.032L131.682 318.143L135.73 317.604H141.127H147.063H154.349L158.127 318.143L162.444 319.223L171.619 320.842L179.444 323L189.698 325.159L201.301 327.318H215.873H223.428L229.095 326.508L235.301 324.08L239.619 320.842L242.317 318.143L244.206 315.445L246.095 311.667L247.174 308.429L247.984 303.302V299.794V297.905L248.793 298.445L250.952 299.794L253.111 301.143L252.571 299.254V297.905V295.746L251.762 294.127L250.143 291.429L248.793 289.81L247.174 289V287.111L252.571 289L251.762 286.572L250.143 283.873L247.174 281.175L244.746 278.476L242.857 275.238H244.746L247.174 276.048L250.143 276.588L249.333 274.159L247.984 271.461L245.285 269.032L242.317 267.683L239.619 267.143L238.27 265.524H242.317H247.174L246.095 264.175C245.645 263.725 244.368 262.502 242.857 261.207C241.346 259.911 241.867 260.667 242.317 261.207L239.619 258.778L237.19 257.699H233.682V256.349L234.762 255.54L238.27 254.73H240.698L239.079 252.572L236.381 250.953L230.984 248.524L226.127 247.715L225.047 243.937L228.825 244.746L232.333 245.556V242.588L230.444 239.349L227.476 235.841L223.698 233.143L220.46 232.603L219.381 231.524L218.301 229.635H221H223.698H225.047V228.286L222.889 226.127L220.46 224.778L218.301 222.889V221.54L221 222.889L225.047 224.778L226.127 223.968L228.285 221.54L230.984 218.302L233.682 215.873L237.19 212.365L240.698 210.746L246.095 210.207L252.841 210.746L256.889 212.365L259.857 213.175L259.317 212.365L257.428 210.207L254.73 206.159L251.492 199.953L248.524 193.476L246.635 187L246.095 181.603L247.174 175.397L249.063 171.349L252.301 167.302L256.889 164.064L258.508 162.714H256.889L250.682 161.635L245.016 160.556H237.19H227.476L217.762 160.016L206.698 160.556L198.333 161.635L189.158 162.984L182.682 164.064L175.397 165.952L169.46 167.572L164.333 168.921L159.206 171.349L155.968 174.048L154.619 175.667H153.27L149.222 174.048L145.984 172.429L140.317 170.81L136 169.73L131.682 168.921L127.905 168.111L124.397 167.032H120.619V165.952L121.428 164.873L123.857 162.984L125.476 160.556L127.905 158.937L130.063 156.778L132.222 154.619V155.429V157.318H133.301L135.19 154.889L137.349 153L139.778 151.111L142.206 150.572L142.746 152.46L143.825 154.349L145.984 155.429L148.412 156.238L151.92 156.508H153.809H155.698H157.587L160.285 156.238L161.635 158.127L163.524 160.556L165.412 162.984L167.301 165.413L170.27 165.952L173.238 165.413L174.587 164.064L176.476 163.524L175.936 162.445L177.285 161.365L177.825 160.556V158.397L178.095 156.778L176.476 155.429V156.778L175.397 158.127V156.778L174.587 154.619H174.047L173.238 156.238L171.889 158.127L171.349 157.318V156.778L169.46 154.619V153L167.301 151.111L168.111 150.302L169.73 148.952H172.428L175.397 149.762L178.095 151.111L181.333 150.302L183.222 148.143V145.714L181.873 146.524V147.064L180.793 147.603L178.905 147.064L175.397 145.445L173.238 144.635H170.809L168.381 145.445L165.952 145.714L163.524 145.445L163.254 144.635L162.444 143.556L161.635 143.016L161.365 142.476L161.635 141.937L162.444 141.667L163.254 141.127L164.333 140.857H165.412L165.952 142.206L167.032 143.556L167.301 143.286L167.841 142.746L168.111 141.937L168.381 140.587V139.508H169.73V140.318L170.27 141.667L170.809 142.746L171.349 143.286L171.889 142.476L172.428 141.127L173.238 140.318V139.238H174.587L175.397 140.048V141.127V142.476H176.476L177.285 141.667V140.587V138.698H178.635V139.508L178.905 141.667L180.254 142.476L180.793 141.667V140.048V137.889H181.873V138.698L182.682 140.048L184.841 141.127V139.238V137.079H187H189.698V138.698V140.587V142.476V144.635H190.508L191.587 143.286L192.127 142.476L193.206 140.587V138.698V137.079H194.555V137.889V139.238L194.016 140.587L194.555 143.286L195.365 142.476L196.444 141.127L197.254 139.238V136.54L198.063 135.46V134.381L197.524 132.222L194.555 128.984L192.127 127.095L189.698 125.476L187 124.397H184.301L182.682 126.016H181.333H178.095H174.587L171.349 124.397L169.46 121.968L167.032 121.429H164.333L161.635 121.968L159.476 122.508H154.079L153 120.889L151.651 118.191L149.762 115.762L147.063 112.524L143.016 109.286L138.428 107.397L134.381 105.778L129.524 104.968H125.476L121.428 105.778L123.047 106.587L125.476 107.127L129.254 108.746L132.762 111.444L135.73 113.873L138.698 115.762L141.936 118.191L141.127 119.27L138.698 118.191L136.27 117.381L133.301 116.841L129.524 116.571L126.285 116.841H123.047L120.079 117.381L117.381 118.191L114.952 119.81H116.032H119.27L121.968 120.349L124.666 121.429L127.905 122.508L130.603 123.857L133.301 126.016L132.222 127.095H130.603L129.254 126.016L126.285 125.476H121.968H118.19L114.412 126.016L111.444 127.095L108.476 128.984H110.905H113.603H116.032L119.27 129.524L121.968 130.603L123.047 132.222L121.968 133.032L119.27 134.381H118.19H116.032H114.412L111.444 135.46L109.285 136.27L107.397 137.079L103.619 140.318L101.73 142.476L100.111 145.175L99.5712 147.064L101.73 146.254L104.428 145.714L106.857 145.175H108.476V146.254L107.397 147.603L105.778 149.762H103.619L101.73 150.302L99.0315 151.651L97.4125 153L96.0633 154.349L94.1744 155.968L92.2855 158.667L91.7458 161.365L92.2855 161.735L94.1744 160.556L96.0633 159.476L97.4125 158.667H99.0315V159.476L97.9521 161.365L96.6029 163.254L94.714 164.873L93.095 166.762L90.9363 168.921L89.5871 171.619L88.7775 175.397V177.826L89.5871 176.746L90.9363 175.397L92.2855 174.048V175.937L90.9363 178.905Z" fill="#A70B18" stroke="black"/>
<path d="M99.3016 189.699L95.5238 188.08L94.7143 190.238L93.6349 193.476L92.5556 196.445L91.746 199.413L90.9365 203.191L92.5556 204.54L94.7143 206.159L97.9524 206.969L101.46 207.508L103.889 207.778L106.048 207.508V205.349V202.111L106.857 198.873L107.397 196.445L107.937 193.476L108.746 190.238L109.286 188.08L107.397 188.619L106.048 189.429L103.889 190.238H102L99.3016 189.699Z" fill="#FFCA56" stroke="black"/>
<path d="M171.889 124.667L171.08 126.826V128.175" stroke="black"/>
<path d="M175.127 126.286L174.857 128.175L174.587 129.254" stroke="black"/>
<path d="M178.635 126.286L178.095 127.635L177.556 129.524" stroke="black"/>
<path d="M183.222 126.286L181.603 128.175L180.793 129.524" stroke="black"/>
<path d="M130.873 127.365L128.445 128.984L124.127 131.413L122.508 132.762L117.381 137.08L113.064 140.857L110.095 144.095L107.937 146.794L103.619 152.73L100.651 156.778L98.762 159.207L96.3334 165.683L94.1747 170.27L92.5557 174.318" stroke="black"/>
<path d="M72.3175 241.778L73.9365 240.429C73.9365 239.799 73.9365 238.432 73.9365 238C73.9365 237.568 73.9365 235.841 73.9365 235.032L72.3175 234.492H68.8096H65.8413" stroke="black"/>
<path d="M68.5396 228.016L70.9681 228.286L72.5872 229.905L74.2062 230.715L73.6665 233.143V234.762" stroke="black"/>
<path d="M73.397 232.334L71.5081 231.794H69.3494H68.27L70.4287 232.334L72.0478 232.873L73.1272 233.143" stroke="black"/>
<path d="M73.3967 237.191H70.9681H68.5396L70.4284 238.27L72.3173 239.08H73.6665" stroke="black"/>
<path d="M130.333 253.651L132.222 258.778L133.302 263.905L133.572 268.493V272.54" stroke="black"/>
<path d="M135.461 250.413L136.27 253.921V257.699V261.477L135.461 263.635V266.604L134.651 269.032L134.111 270.381" stroke="black"/>
<path d="M139.778 248.254V251.762L138.968 254.191L138.159 256.619" stroke="black"/>
<path d="M147.603 257.699V260.397L147.063 263.365L145.714 264.984L143.286 269.032L142.206 270.651L140.857 272" stroke="black"/>
<path d="M164.873 256.35L164.333 259.588L163.524 263.635L161.905 266.064L160.286 267.953L158.937 269.842" stroke="black"/>
<path d="M136 263.366L140.587 264.445H145.175H150.571L155.159 263.905L160.016 263.366L162.984 262.556H165.682L168.381 261.747H169.46L167.302 263.366L162.984 265.255L158.936 266.334L154.079 267.683L148.682 268.223H142.476H137.619L135.19 267.683" stroke="black"/>
<path d="M85.5398 284.953L88.5081 285.492V286.302L86.3493 288.461L85.5398 290.08L84.4604 291.699" stroke="black"/>
<path d="M88.5078 286.302H90.3967L91.4761 288.191L93.0951 289.54L93.9046 291.429V292.509L93.0951 293.048" stroke="black"/>
<path d="M102.27 289.27L99.8413 288.191H97.4127L95.5238 289.27L94.7143 290.889L93.9048 291.699L96.0635 290.889L97.9524 291.699L99.5715 292.239L99.8413 294.397V296.556V297.905" stroke="black"/>
<path d="M91.2065 288.191L89.0478 289.27L88.2382 290.619L87.4287 291.699L89.0478 291.159L91.2065 290.619H93.0954" stroke="black"/>
<path d="M127.905 292.508L125.746 293.588L124.936 294.937L124.127 296.016L125.746 295.477L127.905 294.937H129.794" stroke="black"/>
<path d="M99.3018 293.048C98.6542 293.048 97.4129 293.767 96.8732 294.127L95.2542 295.476L94.1748 296.556L96.3335 295.746H98.4923L99.8415 295.476" stroke="black"/>
<path d="M136.231 296.286C135.861 296.286 135.152 296.729 134.844 296.95L133.919 297.781L133.302 298.445L134.535 297.947H135.769L136.54 297.781" stroke="black"/>
<path d="M106.857 212.635L108.206 215.604C108.566 216.593 109.286 218.68 109.286 219.111C109.286 219.543 110.185 221.45 110.635 222.35L111.444 225.588L113.333 228.556L114.952 232.064L116.571 234.762L117.92 236.111" stroke="black"/>
<path d="M111.714 204L111.175 207.778L111.714 209.397L112.794 212.905L114.683 216.413L117.111 221.001L119.54 225.318L121.699 228.286L123.318 230.985" stroke="black"/>
<path d="M112.793 202.651L114.682 206.429L115.762 208.857L117.111 211.286L120.889 215.333L124.397 218.032H128.714L133.301 216.683L137.079 215.333L137.889 214.524" stroke="black"/>
<path d="M123.857 243.667L120.619 250.143L119.54 258.508V266.064" stroke="black"/>
<path d="M150.841 240.699L153.54 245.286V248.524L151.921 252.032L150.032 254.73" stroke="black"/>
<path d="M155.698 241.778L157.317 246.096V249.874L155.698 252.572" stroke="black"/>
<path d="M160.556 243.667L161.905 246.635L160.556 250.413" stroke="black"/>
<path d="M139.508 247.985V252.032L137.889 257.429H141.936H148.412H153.27H159.746L166.762 255.81C167.841 255.81 170.216 255.81 171.079 255.81C171.943 255.81 173.418 255.81 174.047 255.81L177.285 252.032L180.793 246.635C181.333 246.366 182.574 245.664 183.222 245.016C183.87 244.369 185.83 241.868 186.73 240.699L189.428 237.731L192.936 235.032C193.476 234.492 194.717 233.359 195.365 233.143C196.012 232.927 198.693 231.794 199.952 231.254H200.762" stroke="black"/>
<path d="M202.921 235.302L198.873 237.46L191.048 240.699L186.191 245.016L181.334 248.524L175.397 253.921L170.27 260.937V267.683" stroke="black"/>
<path d="M181.063 266.064L185.921 262.556L196.984 259.318L205.619 254.461L212.365 247.445L213.714 243.667" stroke="black"/>
<path d="M192.127 261.477H197.254H202.651L204.809 260.127" stroke="black"/>
<path d="M186.73 269.572H192.936L200.762 267.683L209.666 263.365L215.063 257.429L219.111 251.762V250.143V256.619L221 267.683L225.587 278.746L230.174 286.302L233.682 293.048L235.841 304.381L234.492 310.048L230.174 313.286" stroke="black"/>
<path d="M194.556 270.651L199.952 274.699L204 278.747L205.619 279.556L204 275.778V272.001H206.699C207.868 272.54 210.368 273.835 211.016 274.699C211.664 275.562 214.344 278.837 215.603 280.366L218.841 286.032V288.461" stroke="black"/>
<path d="M249.603 162.445H238.54H224.508L209.667 163.794L194.825 167.032L181.063 169.461L171.889 171.619L168.381 172.969L177.825 174.048L191.587 176.207L205.079 179.445L218.841 184.302L227.746 188.35L239.619 194.016L246.905 199.953L252.841 205.889L258.238 212.096L249.603 204L239.619 197.794L227.746 192.397L216.413 187L203.19 184.302L192.667 180.794L183.492 178.365L174.857 177.286L168.381 176.207L176.206 180.794L184.841 187L194.825 194.016L203.19 199.953L209.667 206.429L217.222 213.445L225.587 222.08L217.222 215.873L209.667 209.667L201.571 203.191L193.476 197.254L188.349 193.477L181.873 189.429L176.206 185.112L168.381 179.445" stroke="black"/>
<path d="M154.079 178.635L145.445 175.397L133.572 173.508H123.587L129.794 176.207L137.619 180.254L146.794 184.302L154.079 188.889L163.794 195.635L170 199.953" stroke="black"/>
<path d="M129.524 212.096L130.064 205.619L128.175 198.603L124.937 190.778L121.159 182.953L120.08 177.826L124.127 182.143L127.635 187.27C128.804 188.979 131.197 192.505 131.413 192.937C131.629 193.369 134.561 196.894 136 198.603C137.08 200.312 139.346 203.838 139.778 204.27C140.21 204.702 142.117 207.328 143.016 208.588L143.556 209.127" stroke="black"/>
<path d="M168.651 202.651L161.635 198.604L154.619 194.016L145.175 189.159L137.079 184.302L130.333 180.524L124.397 177.286L121.968 176.477L126.556 181.604L131.952 188.35L137.889 196.445L141.667 201.842L145.175 207.508" stroke="black"/>
<path d="M175.127 223.968L182.143 220.73L191.857 218.302H199.952L211.016 219.651L219.381 222.349" stroke="black"/>
<path d="M245.825 302.493L242.587 305.191L240.698 307.35H243.667L242.587 309.509L240.698 312.477H236.381L235.032 314.096L236.381 316.255L235.841 317.334H232.333L229.095 318.413L230.714 320.032V320.572L229.095 321.112L227.476 321.651L226.127 321.112L223.698 320.032H221.54H219.921L220.46 321.651L221.54 322.731L219.381 323.27H218.301L216.682 322.191L214.254 321.112L212.365 320.032L211.016 319.763V321.112V322.731L208.587 322.191L204.809 321.112L200.762 319.763L199.413 319.223" stroke="black"/>
<path d="M211.016 323L214.793 323.27H217.492L221.539 323L225.587 322.461L227.746 321.921L232.063 320.302L234.222 318.953L236.111 317.604L238 315.445L240.158 313.286L240.698 312.477L244.476 307.35L245.285 305.73L245.825 302.762" stroke="black"/>
<path d="M200.222 305.191L202.111 303.032L203.73 301.413L205.619 299.524L208.587 298.984L209.936 300.603L211.016 302.222L211.556 303.842L212.095 306L211.556 306.81" stroke="black"/>
<path d="M210.746 301.953L208.317 303.032L206.428 304.111L204.54 305.191H206.428L208.317 304.651L210.476 304.381H211.286" stroke="black"/>
<path d="M208.587 290.889V293.048L208.048 295.207L206.429 296.016L204.81 297.096L203.46 298.984L200.762 300.064L198.064 301.413L197.524 301.953H200.222L204.27 300.064" stroke="black"/>
<path d="M204.54 287.111V289.27L203.46 290.889L201.302 292.778H199.143L197.794 294.937H196.444L194.016 295.476L191.317 296.016L189.968 297.095L192.127 297.635L193.746 298.175" stroke="black"/>
<path d="M192.667 300.334L194.286 298.715L196.444 297.096L198.603 296.556L201.032 297.636L202.92 298.715" stroke="black"/>
<path d="M192.937 290.889L194.556 292.238L195.635 293.857L195.905 294.937" stroke="black"/>
<path d="M204.27 300.064L204.81 300.604" stroke="black"/>
<path d="M112.794 178.365L110.095 184.841L107.937 193.207L106.048 202.651V214.794L109.286 228.016L113.603 238L118.461 246.096L119.27 257.969V264.984L115.222 262.556L109.286 257.159" stroke="black"/>
<path d="M163.794 146.524H160.016H158.127L160.825 151.111L163.794 154.619L167.571 151.111" stroke="black"/>
<path d="M161.095 140.587L156.238 141.667H151.381L148.952 140.587L152.73 144.635L156.238 147.873L162.714 154.349L166.492 158.397L169.73 160.286L174.047 161.095L175.936 162.984" stroke="black"/>
<path d="M119.54 155.968C119.971 156.4 123.677 158.847 125.476 160.016" stroke="black"/>
<path d="M107.127 170L110.635 172.159L114.413 173.239H115.222" stroke="black"/>
<path d="M96.603 188.619L100.92 190.238H103.889L107.936 188.619" stroke="black"/>
<path d="M127.095 145.175L123.857 147.603L119.54 150.841L114.952 154.889L109.016 160.286L105.508 164.334L102 169.461L99.3017 174.318L96.6032 178.905L94.7144 184.032" stroke="black"/>
<path d="M126.016 149.223L118.19 155.969L110.905 163.794L103.079 173.508L98.7619 181.334L94.9841 189.429L92.2857 197.524L90.9365 202.651" stroke="black"/>
<path d="M91.2065 203.46L94.4446 206.159L100.111 207.508H104.429H105.508" stroke="black"/>
<path d="M93.6348 223.159H99.5713H104.428L106.857 222.35" stroke="black"/>
<path d="M98.4922 237.731L103.889 238.54L107.937 237.731L110.905 235.032" stroke="black"/>
<path d="M106.857 250.683H111.174H116.032H117.651" stroke="black"/>
<path d="M160.556 135.191L158.127 136.27L161.905 137.35H166.492L172.429 136.27L175.667 135.191L177.016 133.302L174.317 131.683L170.54 130.604L169.46 131.683L167.302 133.302L164.063 135.191H160.556Z" fill="#0A0A0A" stroke="black"/>
<path d="M138.698 122.586L143.647 122.933L146.777 120.269L147.376 119.061L150.277 120.5L152.336 123.028L154.386 122.539" stroke="black"/>
<path d="M121.159 135.731L118.73 138.429L124.127 137.08L129.793 135.731H134.651H138.698L140.587 134.651V131.683L138.698 129.254H136.809H132.492L129.793 130.604L124.936 133.032L121.159 135.731Z" fill="#E9E3E5" stroke="black"/>
<path d="M127.905 145.175L125.207 149.222H127.905L130.873 146.524L134.651 145.175L138.429 143.825L140.857 142.206V140.587L139.778 137.889L137.619 136.81L135.461 137.889L132.222 140.587L129.794 142.206L127.905 145.175Z" fill="#EBE6E6" stroke="black"/>
<path d="M142.206 146.794V149.762L139.238 151.651L135.73 154.08L133.032 157.048V155.699V153.27L134.381 150.572L135.73 148.143L137.349 145.984L140.048 143.826L142.206 144.905V146.794Z" fill="#ECE3E3" stroke="black"/>
<path d="M185.921 131.683L186.19 133.032L185.921 133.302H185.381L184.571 132.762L184.032 131.143V129.794L185.381 128.984L186.73 128.714L188.349 129.254L189.429 129.794L190.508 130.873L191.317 131.683L192.127 132.492L191.587 132.762H190.238L188.619 131.952L187.54 130.873H186.19L185.921 131.683Z" fill="black" stroke="black"/>
<path d="M157.587 126.016V128.445L159.746 130.603H162.714L163.794 128.445" stroke="black"/>
<path d="M151.651 127.365L154.349 125.477H156.778H159.746L162.175 127.365L165.413 128.715L168.651 127.365" stroke="black"/>
<path d="M116.302 179.445L118.19 187.81L120.349 198.064V201.032V203.461V207.508L118.19 209.937L116.302 207.508L118.19 204.81V203.461L115.492 202.112H113.063" stroke="black"/>
<path d="M90.9363 178.905L89.5871 187L89.0474 195.095L89.5871 202.921V209.397L90.3966 217.222C91.2061 219.831 92.8791 225.102 93.095 225.318C93.3109 225.534 94.4442 229.005 94.9839 230.714C95.7934 232.423 97.4125 236.003 97.4125 236.651C97.4125 237.299 99.931 240.879 101.19 242.588L104.428 246.095L103.349 246.635H100.381H96.6029L91.476 247.175L86.349 246.095L83.9204 243.937L82.0315 240.699L81.7617 238L80.9521 234.762L80.4125 231.794C79.8728 231.344 78.7394 230.391 78.5236 230.175C78.3077 229.959 77.714 229.725 77.4442 229.635L76.6347 228.286L74.2061 226.397L72.0474 224.508L69.8886 223.968H67.1902V225.318V226.937L67.9998 228.016L67.7299 228.286H66.1109H64.4918L63.4125 228.826L61.7934 230.175L62.3331 231.524L63.9521 232.873L66.1109 233.683V235.032H64.4918L61.5236 235.841L60.9839 236.651V238L62.3331 239.08L64.4918 239.619L67.1902 240.429L69.349 241.778H71.5077L72.5871 243.127L73.9363 245.286V248.524H72.5871L71.5077 249.064L70.4283 250.143V252.842H69.349L68.2696 253.111L67.1902 254.191L65.3013 255.27L64.4918 256.08L65.0315 256.889L66.6506 257.429L70.4283 257.159H73.3966H75.0156H76.6347L77.4442 255.81L78.5236 254.461L80.6823 253.111L81.7617 252.032L82.841 252.302L86.0791 253.111L89.5871 254.461L94.9839 256.08L97.9521 258.508H105.778L109.016 257.429L111.174 259.048L114.412 262.016L118.46 263.635L119.539 264.445L120.349 268.762L121.428 271.461L119.539 272L115.762 274.159L112.524 277.397L109.555 280.365L107.127 283.603L104.968 284.413H100.381L97.1426 283.064L94.9839 281.984L94.1744 280.365H91.2061L88.7775 281.984L87.1585 284.413H86.0791L83.6506 286.302L81.222 289.81L80.6823 291.969H82.5712L84.9998 291.429L84.4601 293.048V296.016L85.5394 295.207H87.1585L89.5871 294.127L91.2061 293.588H93.095L91.2061 296.826L90.6664 300.064L93.095 299.524L97.1426 298.445L99.0315 297.905L100.381 298.984L103.349 297.635H106.317L110.365 296.016L111.984 294.127V292.508L113.873 291.429L119 287.921L124.127 283.064L127.635 280.365L130.603 276.857L133.032 273.08L134.111 270.381H136.27L140.317 271.461L141.936 272V274.159L143.555 275.778L144.095 276.857L142.746 278.476L140.857 280.365L138.428 281.984L136.27 283.064L132.492 282.524L129.793 283.064L128.174 285.223L127.095 286.032L124.936 286.842L122.238 290.35L120.349 292.508V294.667L123.317 294.127L122.238 296.016V297.635L124.936 297.905L128.174 297.635L132.492 296.826L131.412 297.635V298.984L132.492 299.524H136.27L137.889 298.984H141.936L145.984 299.524H149.492L151.92 298.445L152.46 296.826L153 295.207L154.079 294.127L156.508 291.969L158.666 290.35L161.635 287.381L163.254 284.413V280.905L162.444 277.667V274.969L163.254 271.461L166.492 268.762L169.19 266.873L169.73 268.762L171.619 271.461L174.317 274.159L179.444 276.857L186.73 279.826L196.174 283.064L201.841 285.223L201.301 287.921L199.952 289.81H196.174H193.476L192.127 290.889L189.158 292.508L185.381 295.207L182.412 298.445L181.333 301.413H184.301H186.73L189.428 301.143L192.127 300.604L191.317 301.413L189.968 303.572L189.158 306H190.508L194.016 305.73L196.984 304.921H199.952V306V309.508L203.73 308.429L205.889 307.08H211.016L215.873 306L218.032 303.842L218.571 300.604L217.222 296.286L218.032 293.588L218.571 290.889V286.572L219.651 287.381L223.428 289.27L227.206 293.588L230.714 297.905L232.873 302.492V307.619L229.635 313.556L221 317.064L204.809 318.143L192.127 317.064L179.984 315.445L173.238 314.635L167.301 313.556L162.444 312.207L155.158 311.667L141.936 312.207L134.111 313.016L127.905 314.635L121.698 316.794L116.032 319.223L111.174 323L106.587 328.667L111.174 326.778L117.92 324.08L121.158 322.191L126.016 320.032L131.682 318.143L135.73 317.604H141.127H147.063H154.349L158.127 318.143L162.444 319.223L171.619 320.842L179.444 323L189.698 325.159L201.301 327.318H215.873H223.428L229.095 326.508L235.301 324.08L239.619 320.842L242.317 318.143L244.206 315.445L246.095 311.667L247.174 308.429L247.984 303.302V299.794V297.905L248.793 298.445L250.952 299.794L253.111 301.143L252.571 299.254V297.905V295.746L251.762 294.127L250.143 291.429L248.793 289.81L247.174 289V287.111L252.571 289L251.762 286.572L250.143 283.873L247.174 281.175L244.746 278.476L242.857 275.238H244.746L247.174 276.048L250.143 276.588L249.333 274.159L247.984 271.461L245.285 269.032L242.317 267.683L239.619 267.143L238.27 265.524H242.317H247.174L246.095 264.175C245.645 263.725 244.368 262.502 242.857 261.207C241.346 259.911 241.867 260.667 242.317 261.207L239.619 258.778L237.19 257.699H233.682V256.349L234.762 255.54L238.27 254.73H240.698L239.079 252.572L236.381 250.953L230.984 248.524L226.127 247.715L225.047 243.937L228.825 244.746L232.333 245.556V242.588L230.444 239.349L227.476 235.841L223.698 233.143L220.46 232.603L219.381 231.524L218.301 229.635H221H223.698H225.047V228.286L222.889 226.127L220.46 224.778L218.301 222.889V221.54L221 222.889L225.047 224.778L226.127 223.968L228.285 221.54L230.984 218.302L233.682 215.873L237.19 212.365L240.698 210.746L246.095 210.207L252.841 210.746L256.889 212.365L259.857 213.175L259.317 212.365L257.428 210.207L254.73 206.159L251.492 199.953L248.524 193.476L246.635 187L246.095 181.603L247.174 175.397L249.063 171.349L252.301 167.302L256.889 164.064L258.508 162.714H256.889L250.682 161.635L245.016 160.556H237.19H227.476L217.762 160.016L206.698 160.556L198.333 161.635L189.158 162.984L182.682 164.064L175.397 165.952L169.46 167.572L164.333 168.921L159.206 171.349L155.968 174.048L154.619 175.667H153.27L149.222 174.048L145.984 172.429L140.317 170.81L136 169.73L131.682 168.921L127.905 168.111L124.397 167.032H120.619V165.952L121.428 164.873L123.857 162.984L125.476 160.556L127.905 158.937L130.063 156.778L132.222 154.619V155.429V157.318H133.301L135.19 154.889L137.349 153L139.778 151.111L142.206 150.572L142.746 152.46L143.825 154.349L145.984 155.429L148.412 156.238L151.92 156.508H153.809H155.698H157.587L160.285 156.238L161.635 158.127L163.524 160.556L165.412 162.984L167.301 165.413L170.27 165.952L173.238 165.413L174.587 164.064L176.476 163.524L175.936 162.445L177.285 161.365L177.825 160.556V158.397L178.095 156.778L176.476 155.429V156.778L175.397 158.127V156.778L174.587 154.619H174.047L173.238 156.238L171.889 158.127L171.349 157.318V156.778L169.46 154.619V153L167.301 151.111L168.111 150.302L169.73 148.952H172.428L175.397 149.762L178.095 151.111L181.333 150.302L183.222 148.143V145.714L181.873 146.524V147.064L180.793 147.603L178.905 147.064L175.397 145.445L173.238 144.635H170.809L168.381 145.445L165.952 145.714L163.524 145.445L163.254 144.635L162.444 143.556L161.635 143.016L161.365 142.476L161.635 141.937L162.444 141.667L163.254 141.127L164.333 140.857H165.412L165.952 142.206L167.032 143.556L167.301 143.286L167.841 142.746L168.111 141.937L168.381 140.587V139.508H169.73V140.318L170.27 141.667L170.809 142.746L171.349 143.286L171.889 142.476L172.428 141.127L173.238 140.318V139.238H174.587L175.397 140.048V141.127V142.476H176.476L177.285 141.667V140.587V138.698H178.635V139.508L178.905 141.667L180.254 142.476L180.793 141.667V140.048V137.889H181.873V138.698L182.682 140.048L184.841 141.127V139.238V137.079H187H189.698V138.698V140.587V142.476V144.635H190.508L191.587 143.286L192.127 142.476L193.206 140.587V138.698V137.079H194.555V137.889V139.238L194.016 140.587L194.555 143.286L195.365 142.476L196.444 141.127L197.254 139.238V136.54L198.063 135.46V134.381L197.524 132.222L194.555 128.984L192.127 127.095L189.698 125.476L187 124.397H184.301L182.682 126.016H181.333H178.095H174.587L171.349 124.397L169.46 121.968L167.032 121.429H164.333L161.635 121.968L159.476 122.508H154.079L153 120.889L151.651 118.191L149.762 115.762L147.063 112.524L143.016 109.286L138.428 107.397L134.381 105.778L129.524 104.968H125.476L121.428 105.778L123.047 106.587L125.476 107.127L129.254 108.746L132.762 111.444L135.73 113.873L138.698 115.762L141.936 118.191L141.127 119.27L138.698 118.191L136.27 117.381L133.301 116.841L129.524 116.571L126.285 116.841H123.047L120.079 117.381L117.381 118.191L114.952 119.81H116.032H119.27L121.968 120.349L124.666 121.429L127.905 122.508L130.603 123.857L133.301 126.016L132.222 127.095H130.603L129.254 126.016L126.285 125.476H121.968H118.19L114.412 126.016L111.444 127.095L108.476 128.984H110.905H113.603H116.032L119.27 129.524L121.968 130.603L123.047 132.222L121.968 133.032L119.27 134.381H118.19H116.032H114.412L111.444 135.46L109.285 136.27L107.397 137.079L103.619 140.318L101.73 142.476L100.111 145.175L99.5712 147.064L101.73 146.254L104.428 145.714L106.857 145.175H108.476V146.254L107.397 147.603L105.778 149.762H103.619L101.73 150.302L99.0315 151.651L97.4125 153L96.0633 154.349L94.1744 155.968L92.2855 158.667L91.7458 161.365L92.2855 161.735L94.1744 160.556L96.0633 159.476L97.4125 158.667H99.0315V159.476L97.9521 161.365L96.6029 163.254L94.714 164.873L93.095 166.762L90.9363 168.921L89.5871 171.619L88.7775 175.397V177.826L89.5871 176.746L90.9363 175.397L92.2855 174.048V175.937L90.9363 178.905Z" stroke="black"/>
<path d="M117.381 171.08L120.619 167.302H124.666L128.714 168.111L139.508 171.08L147.603 173.238L153.539 175.667L156.508 174.318L155.428 177.286C154.799 178.095 153.539 179.93 153.539 180.794C153.539 181.657 153 183.852 152.73 184.841L156.508 182.953L161.635 180.794L163.793 178.365L166.222 182.953L169.46 188.619L172.159 196.445L171.349 200.762L167.571 204.27L160.286 207.238L153.539 211.286L150.841 213.715L145.714 214.524L146.524 212.365L147.603 210.207L149.222 207.238L146.524 207.778L144.365 209.127L141.397 211.286L139.508 214.524H137.349V212.365V209.127V206.159H136L133.032 207.778L129.524 212.365L126.016 216.683H124.666V212.365L126.016 206.699L124.666 207.238L122.238 207.778L120.079 209.127L118.19 210.207L117.381 210.476L117.111 210.207L116.571 208.857C116.661 208.408 116.895 207.508 117.111 207.508C117.327 207.508 117.561 206.609 117.651 206.159L118.46 204.27L119.539 202.921L119 202.381H117.381L115.222 202.111H112.793V194.016V185.651L115.222 178.365L117.381 171.08Z" stroke="black"/>
<path d="M168.381 179.445L173.238 184.302L177.286 190.508L181.063 198.873L181.603 202.651L178.365 205.619L174.047 208.588L167.032 213.175L162.444 216.953L157.857 222.08L154.619 225.588L152.73 226.397L154.619 227.746L160.016 229.366L167.032 227.746L173.238 225.588L178.365 223.969L184.301 223.429L194.016 222.08C195.635 222.08 199.089 222.08 199.952 222.08C200.816 222.08 204.629 222.619 206.428 222.889L209.936 221.27C210.926 221.27 213.174 221.27 214.254 221.27C215.603 221.27 218.301 222.35 219.111 222.889C219.759 223.321 222.079 224.868 223.159 225.588L225.047 229.366L222.079 230.175H219.111L220.19 232.334L223.159 233.413L229.365 236.921L231.524 240.969L233.143 245.016V246.366L228.825 244.477H225.047L226.666 247.175L233.143 249.064L238.27 252.032L240.428 254.461" stroke="black"/>
<path d="M95.5781 188.341C95.8319 188.409 96.0897 188.51 96.355 188.51C96.3777 188.51 96.3901 188.518 96.4117 188.523C96.4381 188.53 96.4653 188.524 96.4913 188.531C96.528 188.54 96.569 188.56 96.6057 188.573C96.6261 188.581 96.6746 188.6 96.6899 188.615C96.7193 188.644 96.7448 188.665 96.7689 188.695C96.7873 188.718 96.7496 188.734 96.7294 188.742C96.6565 188.77 96.5496 188.734 96.4731 188.734C96.4432 188.734 96.4086 188.72 96.3784 188.715C96.3406 188.709 96.284 188.689 96.2526 188.669C96.2147 188.645 96.1737 188.623 96.1345 188.602C96.0994 188.584 96.0732 188.538 96.0321 188.529C96.0038 188.523 95.9567 188.491 95.9328 188.472C95.9128 188.457 95.8465 188.42 95.821 188.417C95.7811 188.412 95.6707 188.377 95.653 188.341" stroke="black" stroke-linecap="round" stroke-linejoin="round"/>
<path d="M107.728 188.706C107.926 188.638 108.115 188.536 108.303 188.448C108.388 188.409 108.477 188.391 108.559 188.341C108.58 188.329 108.606 188.329 108.629 188.32C108.652 188.312 108.671 188.295 108.694 188.287C108.741 188.271 108.79 188.256 108.838 188.238C108.921 188.208 108.994 188.153 109.076 188.126" stroke="black" stroke-linecap="round" stroke-linejoin="round"/>
<path d="M91.016 202.479C90.9979 202.598 90.9687 202.699 90.9152 202.806C90.9065 202.823 90.8906 202.845 90.889 202.864C90.8835 202.934 90.8272 202.994 90.8175 203.068C90.8005 203.195 90.7983 203.319 90.7983 203.448C90.7983 203.621 90.7983 203.794 90.7983 203.966" stroke="black" stroke-linecap="round" stroke-linejoin="round"/>
<path d="M91.3968 203.731C91.2365 203.637 91.1239 203.522 91.0018 203.4C90.9746 203.373 90.9308 203.327 90.9111 203.295C90.8906 203.262 90.8493 203.267 90.8345 203.223" stroke="black" stroke-linecap="round" stroke-linejoin="round"/>
<path d="M105.238 207.521C105.462 207.521 105.685 207.521 105.909 207.521" stroke="black" stroke-linecap="round" stroke-linejoin="round"/>
<path d="M90.3969 206.699L90.9366 203.73L93.635 205.35L95.5239 206.159L97.6826 206.699L99.5715 207.238L101.46 207.778H103.619H106.318V209.937L106.048 212.096V214.254L106.587 216.683L107.127 219.381L107.937 222.08C107.667 222.26 107.073 222.619 106.857 222.619C106.641 222.619 105.508 223.159 104.968 223.429H102.54H97.6826H93.635L92.016 222.889L90.9366 218.842L90.1271 216.143V213.715L89.5874 209.667L90.3969 206.699Z" fill="#FFCA56" stroke="black"/>
<path d="M166.492 140.048L165.413 140.858L165.952 141.937L166.222 142.746L167.032 143.556L167.571 143.016L168.381 142.207V140.588L168.651 139.508H167.571L166.492 140.048Z" fill="#C4C4C4" stroke="black"/>
<path d="M170 141.127V139.508L171.619 139.238H173.238L172.968 140.318L172.429 141.667L171.619 143.286L170.54 142.476L170 141.127Z" fill="#C4C4C4" stroke="black"/>
<path d="M195.905 136.54L194.555 137.08V139.238L194.016 140.858V141.667L194.555 143.556L195.365 142.477L196.444 141.667L197.254 139.508V137.889V136.54H195.905Z" fill="#C4C4C4" stroke="black"/>
<path d="M189.968 138.968V137.08H193.206V137.889V138.968V140.857L192.667 141.667L191.857 143.016L190.508 144.635H189.968V143.016V140.857V138.968Z" fill="#C4C4C4" stroke="black"/>
<path d="M176.206 138.699L174.857 139.508L175.397 140.048V141.667V142.746H176.476L177.555 141.667V140.857V138.699H176.206Z" fill="#C4C4C4" stroke="black"/>
<path d="M178.635 140.318V138.699L181.063 137.889V139.508V141.667L179.984 142.476L178.635 141.667V140.318Z" fill="#C4C4C4" stroke="black"/>
<path d="M182.143 139.238V138.159L183.222 137.619L185.111 137.08V138.159V139.238V141.397L184.302 140.857L182.953 140.318L182.143 139.238Z" fill="#C4C4C4" stroke="black"/>
<path d="M173.238 156.508L171.889 158.397H172.159L173.238 158.667H174.047H175.127L175.397 158.127V157.588V156.778L175.127 155.159L174.317 154.35L173.778 155.159L173.238 156.508Z" fill="#C4C4C4" stroke="black"/>
<path d="M176.206 158.667H175.397V157.857L175.667 157.318L175.937 156.778L176.206 156.508V155.699V154.889L176.476 155.159L176.746 155.429L177.286 155.969L177.556 156.238L178.095 156.778V157.318L177.826 158.127V158.667H177.286H176.206Z" fill="#C4C4C4" stroke="black"/>
<path d="M109.016 128.985H107.937L109.016 128.445L110.635 127.365L112.524 126.556L114.952 126.016L117.111 125.477H119.81H121.698H124.127H126.286H127.635L129.254 126.016L130.064 126.556L131.143 127.096L130.064 127.905L129.254 128.445L127.365 129.524L126.286 130.334C125.746 130.694 124.559 131.413 124.127 131.413C123.695 131.413 123.228 131.773 123.048 131.953L121.968 130.604L120.619 130.064L118.19 129.524L115.492 128.985H113.333H110.635H109.016Z" fill="#C4C4C4" stroke="black"/>
<path d="M119 134.381L120.349 133.841L120.079 135.191L118.73 136L117.111 137.349L115.222 138.968L113.333 140.857L110.905 143.286L108.746 145.175H107.127L104.698 145.714L102 146.254L99.3016 147.603L99.5715 146.254L100.651 144.095L102 141.937C102.54 141.487 103.619 140.479 103.619 140.048C103.619 139.616 104.698 138.968 105.238 138.698L107.397 137.079L109.286 136L112.254 135.191L114.143 134.381H116.302H119Z" fill="#C4C4C4"/>
<path d="M102.27 150.302L105.508 149.762L104.698 150.841L103.889 152.46L102.81 154.079L101.191 156.238L99.3016 158.667H98.4921H97.4128L95.7937 159.746L93.9048 160.825L92.2858 161.905L91.7461 161.365V160.556L92.2858 158.667L92.8255 157.587L94.1747 156.238L95.5239 154.619L97.4128 153L99.5715 151.111L102.27 150.302Z" fill="#C4C4C4"/>
<path d="M119 134.381L120.349 133.841L120.079 135.191L118.73 136L117.111 137.349L115.222 138.968L113.333 140.857L110.905 143.286L108.746 145.175H107.127L104.698 145.714L102 146.254L99.3016 147.603L99.5715 146.254L100.651 144.095L102 141.937C102.54 141.487 103.619 140.479 103.619 140.048C103.619 139.616 104.698 138.968 105.238 138.698L107.397 137.079L109.286 136L112.254 135.191L114.143 134.381H116.302H119Z" stroke="black"/>
<path d="M102.27 150.302L105.508 149.762L104.698 150.841L103.889 152.46L102.81 154.079L101.191 156.238L99.3016 158.667H98.4921H97.4128L95.7937 159.746L93.9048 160.825L92.2858 161.905L91.7461 161.365V160.556L92.2858 158.667L92.8255 157.587L94.1747 156.238L95.5239 154.619L97.4128 153L99.5715 151.111L102.27 150.302Z" stroke="black"/>
<path d="M93.9048 165.413L96.8731 162.984V164.603L95.7937 167.032L94.1747 170.27L93.0953 173.238L92.2858 174.318L90.6667 175.667L88.7778 177.826V175.127L89.5874 171.889L90.9366 168.921L92.2858 167.572L93.9048 165.413Z" fill="#C4C4C4" stroke="black"/>
<path d="M136.27 124.127L138.698 122.508H140.587L143.825 123.048L145.445 121.429L147.333 119.54L150.302 120.35L152.46 123.048L154.079 122.508L151.921 117.921L148.952 114.413L143.286 109.286L138.698 107.667L132.492 105.508L125.746 104.699L121.159 105.508L125.746 107.667L130.064 109.286L133.841 112.254L137.889 114.953L141.937 117.921L141.127 119.54L137.889 117.921L134.651 116.842H131.683H123.318L117.921 117.921L114.683 119.54H118.46L122.508 120.35L127.095 122.508L131.143 124.127L133.841 126.016L136.27 124.127Z" fill="#C4C4C4" stroke="black"/>
<path d="M220.73 224.239L218.302 222.62L216.683 223.159L217.222 226.937L218.302 230.985L220.73 235.572L223.968 240.699L225.587 247.445L227.206 249.604L229.095 252.572L232.333 255.27L233.952 259.318L235.572 262.017L237.73 266.334L239.619 269.842L242.048 273.62L243.127 277.667L245.825 283.874L247.445 289.81L247.714 297.905L251.222 299.794L253.651 301.413L253.111 299.255V296.017L251.222 293.048L249.064 289.81L247.445 289.001V287.112L249.603 288.191L253.111 289.001L252.032 286.572L249.064 282.524L245.825 279.286L243.127 275.239H245.825L250.413 276.858L247.714 271.191L245.016 269.032L239.619 267.144L238.27 265.794H243.127H247.714L245.825 263.636L242.048 260.397L238.27 257.699H233.952V256.08L237.191 255.001H240.429V253.921L237.191 251.493L233.952 249.604L230.175 248.524L226.397 247.445L225.587 244.477H229.095L232.873 246.366V244.477L231.794 241.509L230.175 238.27L227.206 235.572L223.968 233.413L219.921 232.334L218.841 230.175L222.619 229.905H224.778V228.286L222.619 225.858L220.73 224.239Z" fill="#C4C4C4" stroke="black"/>
<path d="M211.016 322.731V320.842V319.763H212.095L213.714 320.842L215.603 321.921L216.952 322.461L218.124 322.93L221.07 322.825L221.539 322.731L220.73 321.921L220.19 320.842L219.92 319.763H221.539H223.698L225.047 320.842H226.397L227.476 321.651L229.635 320.842L230.714 320.572L230.444 319.763L229.635 318.953L229.095 318.143L231.254 317.604L232.603 317.334H235.031H235.841L236.92 316.255L235.841 315.445L235.031 314.366L235.841 313.017L236.381 312.207H238.539H240.158L241.778 310.858L242.857 308.699L243.666 307.35H240.968L242.587 305.191L244.746 303.302L245.555 302.493V305.191L243.936 308.429L240.968 312.477L238.27 315.445L234.762 318.683L232.603 320.032L228.555 321.651L223.698 322.731L221.07 322.825L220.19 323.001H218.301L218.124 322.93L216.143 323.001H213.174L211.016 322.731Z" fill="#C4C4C4"/>
<path d="M211.016 322.731V320.842V319.763H212.095L213.714 320.842L215.603 321.921L216.952 322.461L218.301 323.001H220.19L221.539 322.731L220.73 321.921L220.19 320.842L219.92 319.763H221.539H223.698L225.047 320.842H226.397L227.476 321.651L229.635 320.842L230.714 320.572L230.444 319.763L229.635 318.953L229.095 318.143L231.254 317.604L232.603 317.334H235.031H235.841L236.92 316.255L235.841 315.445L235.031 314.366L235.841 313.017L236.381 312.207H238.539H240.158L241.778 310.858L242.857 308.699L243.666 307.35H240.968L242.587 305.191L244.746 303.302L245.555 302.493V305.191L243.936 308.429L240.968 312.477L238.27 315.445L234.762 318.683L232.603 320.032L228.555 321.651L223.698 322.731L216.143 323.001H213.174L211.016 322.731Z" stroke="black"/>
<path d="M157.587 126.556V125.477H159.746L162.175 127.365L164.064 128.175L162.714 130.604H159.746L157.587 128.445V127.905V126.556Z" fill="#E6E6E6" stroke="black"/>
<path d="M116.032 202.111L112.793 202.381L115.222 207.508L117.111 211.016L120.889 215.334L124.397 218.032H128.714L133.301 216.683L136.809 215.603L138.428 214.794H141.397L145.714 214.524L147.873 209.937L149.492 207.238L146.254 207.778L144.365 209.397L141.397 211.286L139.508 214.524H137.349V214.254V206.159L136 206.429L133.301 207.778L132.222 209.127L130.063 211.556L127.905 214.254L126.016 216.683H124.666V215.334V212.365L125.206 209.667L126.016 206.699L122.508 207.778L120.079 209.127L117.381 210.476L116.571 209.667L115.762 208.048L116.571 207.238L118.19 204.81L119.539 202.921L118.73 202.381L116.032 202.111Z" fill="#C4C4C4" stroke="black"/>
<path d="M332.282 165.413L334.603 170.27L332.282 169.73H329.728L327.407 171.08L325.782 172.699C325.085 173.598 323.692 175.559 323.692 176.207C323.692 176.854 322.764 178.635 322.3 179.445L320.675 184.302L318.818 189.699L316.96 192.667L314.175 194.286L310.46 195.365L306.514 195.905L302.8 196.175L304.193 197.254L306.746 198.064H309.3L311.389 197.254V199.143L309.532 201.842L307.675 203.73L304.657 205.619L302.568 206.429H299.55L297.461 205.619L296.764 206.969L295.836 208.588L294.211 210.477H290.961H288.407L285.622 209.127L283.764 206.969L281.907 204.27L280.979 200.492L280.282 197.254L278.425 194.286L276.568 192.667H273.782L271.693 193.477L269.604 194.286L271.229 195.096H273.086L275.407 196.445L276.568 198.334L277.497 200.223V202.381V203.73L276.568 205.619L275.407 207.778L273.782 208.588H271.693L272.39 207.778L273.086 206.969V204.81L271.693 203.73H269.604L266.818 204.81L264.497 206.969L262.408 209.127L259.39 211.556L257.3 212.096H252.658L248.247 209.667L244.997 204.81L243.604 203.191V203.73V205.619V208.588L244.301 210.477L246.854 213.175L250.104 213.984L252.658 213.175V215.334L250.568 216.953L246.854 218.572L242.444 218.032L237.801 215.604L235.247 212.635L234.087 209.667L233.622 206.969V203.73L232.462 204.27L231.069 205.619V206.969V210.207L232.926 212.096H231.069L228.747 211.556L227.122 209.397L226.658 206.429V203.73L224.569 204.27L220.622 204.81L216.908 204.27L213.426 201.842L211.105 198.604V195.365L212.033 192.397L213.658 190.238L216.212 189.429L218.069 190.778H216.908L215.051 191.588V194.286L216.908 196.175L221.551 196.715L225.962 193.477L228.283 187.81V182.953L225.962 175.667L220.158 168.111L214.123 163.254L207.623 159.746L200.194 156.778L193.694 155.429L187.194 153.54H190.212H196.48L195.783 152.73L193.23 150.572L189.284 147.603L186.73 144.905L196.712 144.365H205.533L218.301 143.556L222.015 142.207L225.265 140.857L228.747 138.699L233.158 135.73L236.176 132.762L238.265 129.524L239.658 126.016C239.89 125.566 240.354 124.559 240.354 124.127V121.699L239.658 118.73L238.729 116.032L236.872 114.683L235.712 113.873H234.087L233.158 114.143L232.229 115.492V117.651L231.301 117.111L230.604 116.032L229.676 114.953L229.444 112.794L230.372 110.365L231.765 108.476L233.854 107.397L236.176 106.857H238.265L240.354 107.397L243.372 109.016L245.694 112.254L246.39 113.603V112.254L247.783 109.016L251.033 106.318L254.515 105.238L258.229 106.048L255.211 107.397L253.818 109.556V112.794L254.515 115.492L256.372 112.794L258.229 110.905L261.247 108.476H265.89L269.836 109.016L273.318 111.445L275.407 114.683L276.104 117.921V121.429L276.568 125.207L278.193 126.556H280.747L281.907 125.207L282.372 122.778L283.532 124.667V127.095L282.372 129.254L280.747 130.873L283.532 131.683L286.086 133.302L289.104 136L291.889 140.048L293.514 144.365L295.139 148.953L297.229 152.73L300.943 155.429H305.121L307.443 154.08L309.532 150.842V145.715L307.443 143.556L305.121 143.016L305.818 142.476H307.443H310.46L312.782 144.365L315.103 147.064L316.032 150.842V155.969L314.407 159.476L312.318 162.175L308.371 165.413L303.496 165.953L299.086 165.413L296.996 164.064V165.413L297.229 167.842L298.157 171.08L300.246 175.127L304.193 178.635L309.532 178.096L313.71 176.207L316.496 172.699L318.818 168.921L322.3 165.413L325.782 163.524H328.8L332.282 165.413Z" fill="#F60612" stroke="black"/>
<path d="M205.694 138.159C205.694 138.478 205.986 139.349 205.388 139.622C205.068 139.767 205.09 140.174 204.837 140.318" stroke="white" stroke-linecap="round" stroke-linejoin="round"/>
<path d="M312.782 182.143L315.335 178.905V180.254L314.407 182.143L313.246 184.572L311.389 187.54L308.371 190.238L304.193 191.318L300.479 191.588L298.621 190.778L294.675 188.08L290.729 184.572L287.711 181.064L285.157 178.635L281.675 176.207L278.425 174.588L275.872 173.238H274.247H273.086L271.461 172.969L269.604 173.238L267.747 173.508L267.05 174.588L268.211 174.318H269.836H271.925L273.55 175.127L276.104 177.016L277.265 178.905H275.175L273.086 178.635L270.3 179.984L267.283 182.143L265.658 183.223L263.336 184.572L261.711 185.921L264.265 185.381L265.425 184.842L267.747 184.032L269.604 182.683L271.925 182.143L274.015 182.683L276.568 184.032L278.193 186.191L279.122 188.35L278.425 188.08L277.265 187.54L275.407 187L272.854 187.54L269.604 189.429L265.193 192.127L262.872 193.477H259.854L257.301 192.127L256.14 190.778L254.979 189.969V190.778L255.211 192.937L256.836 195.096L258.693 196.984L261.711 198.064H265.425L264.961 199.143L263.568 200.492L261.479 201.572L259.158 202.111H256.14L252.89 201.572L249.64 199.953L247.319 197.524L246.158 196.175L245.229 194.016L244.301 192.667V191.318V189.429L244.069 187.54L243.604 188.35L242.676 189.159L241.515 190.778L240.586 192.667L240.354 195.096V196.984L240.122 196.445L238.961 195.365L238.497 194.016L238.033 192.667L238.265 190.778V189.159L238.497 186.461L237.801 187.81L237.104 189.699C236.64 190.418 235.572 192.019 235.015 192.667C234.458 193.315 233.39 193.117 232.926 192.937C233.158 192.577 233.808 191.642 234.551 190.778C235.294 189.915 235.479 188.799 235.479 188.35V184.302L235.015 178.635L230.604 170.27L225.962 164.603L219.23 159.476L206.23 153.81L202.516 152.461L198.337 152.191C197.795 151.831 196.016 150.68 193.23 148.953C190.444 147.226 189.748 146.254 189.748 145.984H199.962L204.605 147.603L209.944 149.222H212.498L221.087 148.953L223.872 148.413L225.962 147.873L228.515 147.064L231.301 145.715L234.551 143.556L237.104 140.588L239.658 138.159L241.283 136L242.908 134.111L244.301 131.143L244.533 128.715L244.301 126.556V124.397L244.069 122.508L243.604 121.159H244.069L245.694 121.968L247.086 124.127L248.247 127.365V131.143L248.943 129.794L250.104 127.905L251.033 126.016C251.652 125.476 252.983 124.235 253.354 123.588C253.818 122.778 254.283 122.778 254.515 122.508C254.747 122.238 255.908 121.699 256.14 121.699C256.372 121.699 257.765 121.159 257.997 120.889C258.183 120.673 259.158 120.439 259.622 120.349L261.711 120.08L263.336 120.349L265.193 120.889L266.586 121.699L268.443 123.588L269.604 125.476H267.515H265.658L263.336 126.556L261.247 127.365C260.55 128.085 259.065 129.578 258.693 129.794C258.322 130.01 257.61 131.323 257.301 131.953L255.676 134.111L254.515 137.08L255.443 136C255.676 135.64 256.186 134.867 256.372 134.651L257.301 133.572L258.693 132.222L260.318 131.143L262.64 130.334L264.729 130.064L265.89 130.603L265.658 131.143L264.497 131.683L263.336 132.222L261.711 134.111L260.55 136L259.158 139.508L258.693 142.476L259.622 140.588L262.408 138.699L264.265 137.619L266.586 137.08L269.14 136.81H273.318L275.872 137.619L277.729 138.699L280.282 140.588C280.979 141.217 282.418 142.53 282.604 142.746C282.789 142.962 283.61 144.096 283.997 144.635L285.389 146.524L286.318 148.143L287.247 150.572V152.73L286.782 152.191L285.389 150.842L283.3 150.032L280.514 150.302L278.657 150.572L276.336 152.191L274.711 153.54L272.854 155.429L271.461 157.318L269.836 159.476L268.443 161.096L269.604 160.556L274.711 158.937L279.818 159.746L284.461 162.175L289.568 166.762L292.354 173.778L293.979 177.016L296.068 180.524L300.479 184.842L302.103 185.111H306.978L309.764 184.032L312.782 182.143Z" fill="#F5F24A" stroke="black"/>
<path d="M258.926 174.857L257.533 172.968L254.515 171.619L251.033 170.81L248.015 170H245.694L243.604 171.619H246.622L248.711 172.968L250.568 174.857L246.622 173.778L243.604 172.968L239.426 171.619L237.801 170L235.087 167.634L233.39 165.143L235.015 167.572L235.087 167.634L237.801 171.619C237.491 171.259 237.197 171.188 238.497 173.778C239.797 176.368 240.741 178.995 241.051 179.984L243.14 183.492L245.229 185.381L248.711 187H250.568L248.711 184.572L246.622 181.603L249.408 183.492L252.658 185.381H256.14L259.622 184.572L263.336 181.603L264.729 178.635L261.015 179.984L257.533 178.635L256.14 176.746L254.051 175.127L256.604 174.857H258.926Z" fill="#FF5400"/>
<path d="M258.926 174.857L257.533 172.968L254.515 171.619L251.033 170.81L248.015 170H245.694L243.604 171.619H246.622L248.711 172.968L250.568 174.857L246.622 173.778L243.604 172.968L239.426 171.619L237.801 170L235.015 167.572L233.39 165.143L237.801 171.619C237.491 171.259 237.197 171.188 238.497 173.778C239.797 176.368 240.741 178.995 241.051 179.984L243.14 183.492L245.229 185.381L248.711 187H250.568L248.711 184.572L246.622 181.603L249.408 183.492L252.658 185.381H256.14L259.622 184.572L263.336 181.603L264.729 178.635L261.015 179.984L257.533 178.635L256.14 176.746L254.051 175.127L256.604 174.857H258.926Z" stroke="black"/>
<path d="M290.032 174.857L290.729 179.984L288.407 177.286L286.318 175.127L284.461 173.238L281.211 170.81L277.961 170L273.55 169.191L270.068 170L266.586 170.81L263.336 171.889L264.729 170L266.586 168.651L269.372 167.302L272.622 165.683L277.032 164.873H279.818L283.3 166.492L286.782 170L290.032 174.857Z" fill="#FF770B" stroke="black"/>
<path d="M251.497 135.191V131.953L250.801 133.842L249.64 136.54C249.098 137.439 247.922 139.238 247.551 139.238C247.179 139.238 246.003 140.498 245.462 141.127L243.372 143.556L241.747 145.984L240.819 144.096L239.89 142.207V143.556L239.194 145.984L236.872 148.413L232.926 150.032L228.051 151.381L222.944 153L220.158 155.699H221.319H223.873L227.123 156.238L230.837 158.127L233.622 162.445L236.176 165.143L238.497 166.492H240.819L239.89 164.603L241.747 165.143L245.462 166.492L247.551 167.302L251.497 166.492C252.581 165.953 255.351 164.55 257.765 163.254C260.179 161.959 260.009 161.635 259.622 161.635L263.801 159.476H261.711H259.622V158.127L260.783 156.238L261.711 153.81L263.801 151.381L266.122 149.223L270.765 147.064L274.943 145.445L273.086 144.635H270.765L265.426 144.096L261.711 145.445L257.765 147.064L254.747 149.223L251.497 151.381L249.64 153.81V152.191V150.032L251.497 147.064L253.587 144.635L256.604 143.556H254.747H253.122L249.64 144.096L248.015 145.445V144.096L249.64 142.207L250.801 139.238L251.497 135.191Z" fill="#FD7B01" stroke="black"/>
</svg>
