<svg width="693" height="751" viewBox="0 0 693 751" fill="none" xmlns="http://www.w3.org/2000/svg">
<rect width="693" height="750.44" fill="#291A1A"/>
<path d="M168.5 331.5L166 346.5L165 361.5L166 376V388L167.5 402.5C169 407.333 172.1 417.1 172.5 417.5C172.9 417.9 175 424.333 176 427.5C177.5 430.667 180.5 437.3 180.5 438.5C180.5 439.7 185.167 446.333 187.5 449.5L193.5 456L191.5 457H186H179L169.5 458L160 456L155.5 452L152 446L151.5 441L150 435L149 429.5C148 428.667 145.9 426.9 145.5 426.5C145.1 426.1 144 425.667 143.5 425.5L142 423L137.5 419.5L133.5 416L129.5 415H124.5V417.5V420.5L126 422.5L125.5 423H122.5H119.5L117.5 424L114.5 426.5L115.5 429L118.5 431.5L122.5 433V435.5H119.5L114 437L113 438.5V441L115.5 443L119.5 444L124.5 445.5L128.5 448H132.5L134.5 450.5L137 454.5V460.5H134.5L132.5 461.5L130.5 463.5V468.5H128.5L126.5 469L124.5 471L121 473L119.5 474.5L120.5 476L123.5 477L130.5 476.5H136H139H142L143.5 474L145.5 471.5L149.5 469L151.5 467L153.5 467.5L159.5 469L166 471.5L176 474.5L181.5 479H196L202 477L206 480L212 485.5L219.5 488.5L221.5 490L223 498L225 503L221.5 504L214.5 508L208.5 514L203 519.5L198.5 525.5L194.5 527H186L180 524.5L176 522.5L174.5 519.5H169L164.5 522.5L161.5 527H159.5L155 530.5L150.5 537L149.5 541H153L157.5 540L156.5 543V548.5L158.5 547H161.5L166 545L169 544H172.5L169 550L168 556L172.5 555L180 553L183.5 552L186 554L191.5 551.5H197L204.5 548.5L207.5 545V542L211 540L220.5 533.5L230 524.5L236.5 519.5L242 513L246.5 506L248.5 501H252.5L260 503L263 504V508L266 511L267 513L264.5 516L261 519.5L256.5 522.5L252.5 524.5L245.5 523.5L240.5 524.5L237.5 528.5L235.5 530L231.5 531.5L226.5 538L223 542V546L228.5 545L226.5 548.5V551.5L231.5 552L237.5 551.5L245.5 550L243.5 551.5V554L245.5 555H252.5L255.5 554H263L270.5 555H277L281.5 553L282.5 550L283.5 547L285.5 545L290 541L294 538L299.5 532.5L302.5 527V520.5L301 514.5V509.5L302.5 503L308.5 498L313.5 494.5L314.5 498L318 503L323 508L332.5 513L346 518.5L363.5 524.5L374 528.5L373 533.5L370.5 537H363.5H358.5L356 539L350.5 542L343.5 547L338 553L336 558.5H341.5H346L351 558L356 557L354.5 558.5L352 562.5L350.5 567H353L359.5 566.5L365 565H370.5V567V573.5L377.5 571.5L381.5 569H391L400 567L404 563L405 557L402.5 549L404 544L405 539V531L407 532.5L414 536L421 544L427.5 552L431.5 560.5V570L425.5 581L409.5 587.5L379.5 589.5L356 587.5L333.5 584.5L321 583L310 581L301 578.5L287.5 577.5L263 578.5L248.5 580L237 583L225.5 587L215 591.5L206 598.5L197.5 609L206 605.5L218.5 600.5L224.5 597L233.5 593L244 589.5L251.5 588.5H261.5H272.5H286L293 589.5L301 591.5L318 594.5L332.5 598.5L351.5 602.5L373 606.5H400H414L424.5 605L436 600.5L444 594.5L449 589.5L452.5 584.5L456 577.5L458 571.5L459.5 562V555.5V552L461 553L465 555.5L469 558L468 554.5V552V548L466.5 545L463.5 540L461 537L458 535.5V532L468 535.5L466.5 531L463.5 526L458 521L453.5 516L450 510H453.5L458 511.5L463.5 512.5L462 508L459.5 503L454.5 498.5L449 496L444 495L441.5 492H449H458L456 489.5C455.167 488.667 452.8 486.4 450 484C447.2 481.6 448.167 483 449 484L444 479.5L439.5 477.5H433V475L435 473.5L441.5 472H446L443 468L438 465L428 460.5L419 459L417 452L424 453.5L430.5 455V449.5L427 443.5L421.5 437L414.5 432L408.5 431L406.5 429L404.5 425.5H409.5H414.5H417V423L413 419L408.5 416.5L404.5 413V410.5L409.5 413L417 416.5L419 415L423 410.5L428 404.5L433 400L439.5 393.5L446 390.5L456 389.5L468.5 390.5L476 393.5L481.5 395L480.5 393.5L477 389.5L472 382L466 370.5L460.5 358.5L457 346.5L456 336.5L458 325L461.5 317.5L467.5 310L476 304L479 301.5H476L464.5 299.5L454 297.5H439.5H421.5L403.5 296.5L383 297.5L367.5 299.5L350.5 302L338.5 304L325 307.5L314 310.5L304.5 313L295 317.5L289 322.5L286.5 325.5H284L276.5 322.5L270.5 319.5L260 316.5L252 314.5L244 313L237 311.5L230.5 309.5H223.5V307.5L225 305.5L229.5 302L232.5 297.5L237 294.5L241 290.5L245 286.5V288V291.5H247L250.5 287L254.5 283.5L259 280L263.5 279L264.5 282.5L266.5 286L270.5 288L275 289.5L281.5 290H285H288.5H292L297 289.5L299.5 293L303 297.5L306.5 302L310 306.5L315.5 307.5L321 306.5L323.5 304L327 303L326 301L328.5 299L329.5 297.5V293.5L330 290.5L327 288V290.5L325 293V290.5L323.5 286.5H322.5L321 289.5L318.5 293L317.5 291.5V290.5L314 286.5V283.5L310 280L311.5 278.5L314.5 276H319.5L325 277.5L330 280L336 278.5L339.5 274.5V270L337 271.5V272.5L335 273.5L331.5 272.5L325 269.5L321 268H316.5L312 269.5L307.5 270L303 269.5L302.5 268L301 266L299.5 265L299 264L299.5 263L301 262.5L302.5 261.5L304.5 261H306.5L307.5 263.5L309.5 266L310 265.5L311 264.5L311.5 263L312 260.5V258.5H314.5V260L315.5 262.5L316.5 264.5L317.5 265.5L318.5 264L319.5 261.5L321 260V258H323.5L325 259.5V261.5V264H327L328.5 262.5V260.5V257H331V258.5L331.5 262.5L334 264L335 262.5V259.5V255.5H337V257L338.5 259.5L342.5 261.5V258V254H346.5H351.5V257V260.5V264V268H353L355 265.5L356 264L358 260.5V257V254H360.5V255.5V258L359.5 260.5L360.5 265.5L362 264L364 261.5L365.5 258V253L367 251V249L366 245L360.5 239L356 235.5L351.5 232.5L346.5 230.5H341.5L338.5 233.5H336H330H323.5L317.5 230.5L314 226L309.5 225H304.5L299.5 226L295.5 227H285.5L283.5 224L281 219L277.5 214.5L272.5 208.5L265 202.5L256.5 199L249 196L240 194.5H232.5L225 196L228 197.5L232.5 198.5L239.5 201.5L246 206.5L251.5 211L257 214.5L263 219L261.5 221L257 219L252.5 217.5L247 216.5L240 216L234 216.5H228L222.5 217.5L217.5 219L213 222H215H221L226 223L231 225L237 227L242 229.5L247 233.5L245 235.5H242L239.5 233.5L234 232.5H226H219L212 233.5L206.5 235.5L201 239H205.5H210.5H215L221 240L226 242L228 245L226 246.5L221 249H219H215H212L206.5 251L202.5 252.5L199 254L192 260L188.5 264L185.5 269L184.5 272.5L188.5 271L193.5 270L198 269H201V271L199 273.5L196 277.5H192L188.5 278.5L183.5 281L180.5 283.5L178 286L174.5 289L171 294L170 299L171 299.685L174.5 297.5L178 295.5L180.5 294H183.5V295.5L181.5 299L179 302.5L175.5 305.5L172.5 309L168.5 313L166 318L164.5 325V329.5L166 327.5L168.5 325L171 322.5V326L168.5 331.5Z" fill="#A70B18" stroke="black"/>
<path d="M184 351.5L177 348.5L175.5 352.5L173.5 358.5L171.5 364L170 369.5L168.5 376.5L171.5 379L175.5 382L181.5 383.5L188 384.5L192.5 385L196.5 384.5V380.5V374.5L198 368.5L199 364L200 358.5L201.5 352.5L202.5 348.5L199 349.5L196.5 351L192.5 352.5H189L184 351.5Z" fill="#FFCA56" stroke="black"/>
<path d="M318.5 231L317 235V237.5" stroke="black"/>
<path d="M324.5 234L324 237.5L323.5 239.5" stroke="black"/>
<path d="M331 234L330 236.5L329 240" stroke="black"/>
<path d="M339.5 234L336.5 237.5L335 240" stroke="black"/>
<path d="M242.5 236L238 239L230 243.5L227 246L217.5 254L209.5 261L204 267L200 272L192 283L186.5 290.5L183 295L178.5 307L174.5 315.5L171.5 323" stroke="black"/>
<path d="M134 448L137 445.5C137 444.333 137 441.8 137 441C137 440.2 137 437 137 435.5L134 434.5H127.5H122" stroke="black"/>
<path d="M127 422.5L131.5 423L134.5 426L137.5 427.5L136.5 432V435" stroke="black"/>
<path d="M136 430.5L132.5 429.5H128.5H126.5L130.5 430.5L133.5 431.5L135.5 432" stroke="black"/>
<path d="M136 439.5H131.5H127L130.5 441.5L134 443H136.5" stroke="black"/>
<path d="M241.5 470L245 479.5L247 489L247.5 497.5V505" stroke="black"/>
<path d="M251 464L252.5 470.5V477.5V484.5L251 488.5V494L249.5 498.5L248.5 501" stroke="black"/>
<path d="M259 460V466.5L257.5 471L256 475.5" stroke="black"/>
<path d="M273.5 477.5V482.5L272.5 488L270 491L265.5 498.5L263.5 501.5L261 504" stroke="black"/>
<path d="M305.5 475L304.5 481L303 488.5L300 493L297 496.5L294.5 500" stroke="black"/>
<path d="M252 488L260.5 490H269H279L287.5 489L296.5 488L302 486.5H307L312 485H314L310 488L302 491.5L294.5 493.5L285.5 496L275.5 497H264H255L250.5 496" stroke="black"/>
<path d="M158.5 528L164 529V530.5L160 534.5L158.5 537.5L156.5 540.5" stroke="black"/>
<path d="M164 530.5H167.5L169.5 534L172.5 536.5L174 540V542L172.5 543" stroke="black"/>
<path d="M189.5 536L185 534H180.5L177 536L175.5 539L174 540.5L178 539L181.5 540.5L184.5 541.5L185 545.5V549.5V552" stroke="black"/>
<path d="M169 534L165 536L163.5 538.5L162 540.5L165 539.5L169 538.5H172.5" stroke="black"/>
<path d="M237 542L233 544L231.5 546.5L230 548.5L233 547.5L237 546.5H240.5" stroke="black"/>
<path d="M184 543C182.8 543 180.5 544.333 179.5 545L176.5 547.5L174.5 549.5L178.5 548H182.5L185 547.5" stroke="black"/>
<path d="M252.429 549C251.743 549 250.429 549.821 249.857 550.231L248.143 551.769L247 553L249.286 552.077H251.571L253 551.769" stroke="black"/>
<path d="M198 394L200.5 399.5C201.167 401.333 202.5 405.2 202.5 406C202.5 406.8 204.167 410.333 205 412L206.5 418L210 423.5L213 430L216 435L218.5 437.5" stroke="black"/>
<path d="M207 378L206 385L207 388L209 394.5L212.5 401L217 409.5L221.5 417.5L225.5 423L228.5 428" stroke="black"/>
<path d="M209 375.5L212.5 382.5L214.5 387L217 391.5L224 399L230.5 404H238.5L247 401.5L254 399L255.5 397.5" stroke="black"/>
<path d="M229.5 451.5L223.5 463.5L221.5 479V493" stroke="black"/>
<path d="M279.5 446L284.5 454.5V460.5L281.5 467L278 472" stroke="black"/>
<path d="M288.5 448L291.5 456V463L288.5 468" stroke="black"/>
<path d="M297.5 451.5L300 457L297.5 464" stroke="black"/>
<path d="M258.5 459.5V467L255.5 477H263H275H284H296L309 474C311 474 315.4 474 317 474C318.6 474 321.333 474 322.5 474L328.5 467L335 457C336 456.5 338.3 455.2 339.5 454C340.7 452.8 344.333 448.167 346 446L351 440.5L357.5 435.5C358.5 434.5 360.8 432.4 362 432C363.2 431.6 368.167 429.5 370.5 428.5H372" stroke="black"/>
<path d="M376 436L368.5 440L354 446L345 454L336 460.5L325 470.5L315.5 483.5V496" stroke="black"/>
<path d="M335.5 493L344.5 486.5L365 480.5L381 471.5L393.5 458.5L396 451.5" stroke="black"/>
<path d="M356 484.5H365.5H375.5L379.5 482" stroke="black"/>
<path d="M346 499.5H357.5L372 496L388.5 488L398.5 477L406 466.5V463.5V475.5L409.5 496L418 516.5L426.5 530.5L433 543L437 564L434.5 574.5L426.5 580.5" stroke="black"/>
<path d="M360.5 501.5L370.5 509L378 516.5L381 518L378 511V504H383C385.167 505 389.8 507.4 391 509C392.2 510.6 397.167 516.667 399.5 519.5L405.5 530V534.5" stroke="black"/>
<path d="M462.5 301H442H416L388.5 303.5L361 309.5L335.5 314L318.5 318L312 320.5L329.5 322.5L355 326.5L380 332.5L405.5 341.5L422 349L444 359.5L457.5 370.5L468.5 381.5L478.5 393L462.5 378L444 366.5L422 356.5L401 346.5L376.5 341.5L357 335L340 330.5L324 328.5L312 326.5L326.5 335L342.5 346.5L361 359.5L376.5 370.5L388.5 382.5L402.5 395.5L418 411.5L402.5 400L388.5 388.5L373.5 376.5L358.5 365.5L349 358.5L337 351L326.5 343L312 332.5" stroke="black"/>
<path d="M285.5 331L269.5 325L247.5 321.5H229L240.5 326.5L255 334L272 341.5L285.5 350L303.5 362.5L315 370.5" stroke="black"/>
<path d="M240 393L241 381L237.5 368L231.5 353.5L224.5 339L222.5 329.5L230 337.5L236.5 347C238.667 350.167 243.1 356.7 243.5 357.5C243.9 358.3 249.333 364.833 252 368C254 371.167 258.2 377.7 259 378.5C259.8 379.3 263.333 384.167 265 386.5L266 387.5" stroke="black"/>
<path d="M312.5 375.5L299.5 368L286.5 359.5L269 350.5L254 341.5L241.5 334.5L230.5 328.5L226 327L234.5 336.5L244.5 349L255.5 364L262.5 374L269 384.5" stroke="black"/>
<path d="M324.5 415L337.5 409L355.5 404.5H370.5L391 407L406.5 412" stroke="black"/>
<path d="M455.5 560.5L449.5 565.5L446 569.5H451.5L449.5 573.5L446 579H438L435.5 582L438 586L437 588H430.5L424.5 590L427.5 593V594L424.5 595L421.5 596L419 595L414.5 593H410.5H407.5L408.5 596L410.5 598L406.5 599H404.5L401.5 597L397 595L393.5 593L391 592.5V595V598L386.5 597L379.5 595L372 592.5L369.5 591.5" stroke="black"/>
<path d="M391 598.5L398 599H403L410.5 598.5L418 597.5L422 596.5L430 593.5L434 591L437.5 588.5L441 584.5L445 580.5L446 579L453 569.5L454.5 566.5L455.5 561" stroke="black"/>
<path d="M371 565.5L374.5 561.5L377.5 558.5L381 555L386.5 554L389 557L391 560L392 563L393 567L392 568.5" stroke="black"/>
<path d="M390.5 559.5L386 561.5L382.5 563.5L379 565.5H382.5L386 564.5L390 564H391.5" stroke="black"/>
<path d="M386.5 539V543L385.5 547L382.5 548.5L379.5 550.5L377 554L372 556L367 558.5L366 559.5H371L378.5 556" stroke="black"/>
<path d="M379 532V536L377 539L373 542.5H369L366.5 546.5H364L359.5 547.5L354.5 548.5L352 550.5L356 551.5L359 552.5" stroke="black"/>
<path d="M357 556.5L360 553.5L364 550.5L368 549.5L372.5 551.5L376 553.5" stroke="black"/>
<path d="M357.5 539L360.5 541.5L362.5 544.5L363 546.5" stroke="black"/>
<path d="M378.5 556L379.5 557" stroke="black"/>
<path d="M209 330.5L204 342.5L200 358L196.5 375.5V398L202.5 422.5L210.5 441L219.5 456L221 478V491L213.5 486.5L202.5 476.5" stroke="black"/>
<path d="M303.5 271.5H296.5H293L298 280L303.5 286.5L310.5 280" stroke="black"/>
<path d="M298.5 260.5L289.5 262.5H280.5L276 260.5L283 268L289.5 274L301.5 286L308.5 293.5L314.5 297L322.5 298.5L326 302" stroke="black"/>
<path d="M221.5 289C222.3 289.8 229.167 294.333 232.5 296.5" stroke="black"/>
<path d="M198.5 315L205 319L212 321H213.5" stroke="black"/>
<path d="M179 349.5L187 352.5H192.5L200 349.5" stroke="black"/>
<path d="M235.5 269L229.5 273.5L221.5 279.5L213 287L202 297L195.5 304.5L189 314L184 323L179 331.5L175.5 341" stroke="black"/>
<path d="M233.5 276.5L219 289L205.5 303.5L191 321.5L183 336L176 351L171 366L168.5 375.5" stroke="black"/>
<path d="M169 377L175 382L185.5 384.5H193.5H195.5" stroke="black"/>
<path d="M173.5 413.5H184.5H193.5L198 412" stroke="black"/>
<path d="M182.5 440.5L192.5 442L200 440.5L205.5 435.5" stroke="black"/>
<path d="M198 464.5H206H215H218" stroke="black"/>
<path d="M297.5 250.5L293 252.5L300 254.5H308.5L319.5 252.5L325.5 250.5L328 247L323 244L316 242L314 244L310 247L304 250.5H297.5Z" fill="#0A0A0A" stroke="black"/>
<path d="M257 227.145L266.169 227.788L271.968 222.851L273.08 220.612L278.454 223.279L282.27 227.963L286.068 227.057" stroke="black"/>
<path d="M224.5 251.5L220 256.5L230 254L240.5 251.5H249.5H257L260.5 249.5V244L257 239.5H253.5H245.5L240.5 242L231.5 246.5L224.5 251.5Z" fill="#E9E3E5" stroke="black"/>
<path d="M237 269L232 276.5H237L242.5 271.5L249.5 269L256.5 266.5L261 263.5V260.5L259 255.5L255 253.5L251 255.5L245 260.5L240.5 263.5L237 269Z" fill="#EBE6E6" stroke="black"/>
<path d="M263.5 272V277.5L258 281L251.5 285.5L246.5 291V288.5V284L249 279L251.5 274.5L254.5 270.5L259.5 266.5L263.5 268.5V272Z" fill="#ECE3E3" stroke="black"/>
<path d="M344.5 244L345 246.5L344.5 247H343.5L342 246L341 243V240.5L343.5 239L346 238.5L349 239.5L351 240.5L353 242.5L354.5 244L356 245.5L355 246H352.5L349.5 244.5L347.5 242.5H345L344.5 244Z" fill="black" stroke="black"/>
<path d="M292 233.5V238L296 242H301.5L303.5 238" stroke="black"/>
<path d="M281 236L286 232.5H290.5H296L300.5 236L306.5 238.5L312.5 236" stroke="black"/>
<path d="M215.5 332.5L219 348L223 367V372.5V377V384.5L219 389L215.5 384.5L219 379.5V377L214 374.5H209.5" stroke="black"/>
<path d="M168.5 331.5L166 346.5L165 361.5L166 376V388L167.5 402.5C169 407.333 172.1 417.1 172.5 417.5C172.9 417.9 175 424.333 176 427.5C177.5 430.667 180.5 437.3 180.5 438.5C180.5 439.7 185.167 446.333 187.5 449.5L193.5 456L191.5 457H186H179L169.5 458L160 456L155.5 452L152 446L151.5 441L150 435L149 429.5C148 428.667 145.9 426.9 145.5 426.5C145.1 426.1 144 425.667 143.5 425.5L142 423L137.5 419.5L133.5 416L129.5 415H124.5V417.5V420.5L126 422.5L125.5 423H122.5H119.5L117.5 424L114.5 426.5L115.5 429L118.5 431.5L122.5 433V435.5H119.5L114 437L113 438.5V441L115.5 443L119.5 444L124.5 445.5L128.5 448H132.5L134.5 450.5L137 454.5V460.5H134.5L132.5 461.5L130.5 463.5V468.5H128.5L126.5 469L124.5 471L121 473L119.5 474.5L120.5 476L123.5 477L130.5 476.5H136H139H142L143.5 474L145.5 471.5L149.5 469L151.5 467L153.5 467.5L159.5 469L166 471.5L176 474.5L181.5 479H196L202 477L206 480L212 485.5L219.5 488.5L221.5 490L223 498L225 503L221.5 504L214.5 508L208.5 514L203 519.5L198.5 525.5L194.5 527H186L180 524.5L176 522.5L174.5 519.5H169L164.5 522.5L161.5 527H159.5L155 530.5L150.5 537L149.5 541H153L157.5 540L156.5 543V548.5L158.5 547H161.5L166 545L169 544H172.5L169 550L168 556L172.5 555L180 553L183.5 552L186 554L191.5 551.5H197L204.5 548.5L207.5 545V542L211 540L220.5 533.5L230 524.5L236.5 519.5L242 513L246.5 506L248.5 501H252.5L260 503L263 504V508L266 511L267 513L264.5 516L261 519.5L256.5 522.5L252.5 524.5L245.5 523.5L240.5 524.5L237.5 528.5L235.5 530L231.5 531.5L226.5 538L223 542V546L228.5 545L226.5 548.5V551.5L231.5 552L237.5 551.5L245.5 550L243.5 551.5V554L245.5 555H252.5L255.5 554H263L270.5 555H277L281.5 553L282.5 550L283.5 547L285.5 545L290 541L294 538L299.5 532.5L302.5 527V520.5L301 514.5V509.5L302.5 503L308.5 498L313.5 494.5L314.5 498L318 503L323 508L332.5 513L346 518.5L363.5 524.5L374 528.5L373 533.5L370.5 537H363.5H358.5L356 539L350.5 542L343.5 547L338 553L336 558.5H341.5H346L351 558L356 557L354.5 558.5L352 562.5L350.5 567H353L359.5 566.5L365 565H370.5V567V573.5L377.5 571.5L381.5 569H391L400 567L404 563L405 557L402.5 549L404 544L405 539V531L407 532.5L414 536L421 544L427.5 552L431.5 560.5V570L425.5 581L409.5 587.5L379.5 589.5L356 587.5L333.5 584.5L321 583L310 581L301 578.5L287.5 577.5L263 578.5L248.5 580L237 583L225.5 587L215 591.5L206 598.5L197.5 609L206 605.5L218.5 600.5L224.5 597L233.5 593L244 589.5L251.5 588.5H261.5H272.5H286L293 589.5L301 591.5L318 594.5L332.5 598.5L351.5 602.5L373 606.5H400H414L424.5 605L436 600.5L444 594.5L449 589.5L452.5 584.5L456 577.5L458 571.5L459.5 562V555.5V552L461 553L465 555.5L469 558L468 554.5V552V548L466.5 545L463.5 540L461 537L458 535.5V532L468 535.5L466.5 531L463.5 526L458 521L453.5 516L450 510H453.5L458 511.5L463.5 512.5L462 508L459.5 503L454.5 498.5L449 496L444 495L441.5 492H449H458L456 489.5C455.167 488.667 452.8 486.4 450 484C447.2 481.6 448.167 483 449 484L444 479.5L439.5 477.5H433V475L435 473.5L441.5 472H446L443 468L438 465L428 460.5L419 459L417 452L424 453.5L430.5 455V449.5L427 443.5L421.5 437L414.5 432L408.5 431L406.5 429L404.5 425.5H409.5H414.5H417V423L413 419L408.5 416.5L404.5 413V410.5L409.5 413L417 416.5L419 415L423 410.5L428 404.5L433 400L439.5 393.5L446 390.5L456 389.5L468.5 390.5L476 393.5L481.5 395L480.5 393.5L477 389.5L472 382L466 370.5L460.5 358.5L457 346.5L456 336.5L458 325L461.5 317.5L467.5 310L476 304L479 301.5H476L464.5 299.5L454 297.5H439.5H421.5L403.5 296.5L383 297.5L367.5 299.5L350.5 302L338.5 304L325 307.5L314 310.5L304.5 313L295 317.5L289 322.5L286.5 325.5H284L276.5 322.5L270.5 319.5L260 316.5L252 314.5L244 313L237 311.5L230.5 309.5H223.5V307.5L225 305.5L229.5 302L232.5 297.5L237 294.5L241 290.5L245 286.5V288V291.5H247L250.5 287L254.5 283.5L259 280L263.5 279L264.5 282.5L266.5 286L270.5 288L275 289.5L281.5 290H285H288.5H292L297 289.5L299.5 293L303 297.5L306.5 302L310 306.5L315.5 307.5L321 306.5L323.5 304L327 303L326 301L328.5 299L329.5 297.5V293.5L330 290.5L327 288V290.5L325 293V290.5L323.5 286.5H322.5L321 289.5L318.5 293L317.5 291.5V290.5L314 286.5V283.5L310 280L311.5 278.5L314.5 276H319.5L325 277.5L330 280L336 278.5L339.5 274.5V270L337 271.5V272.5L335 273.5L331.5 272.5L325 269.5L321 268H316.5L312 269.5L307.5 270L303 269.5L302.5 268L301 266L299.5 265L299 264L299.5 263L301 262.5L302.5 261.5L304.5 261H306.5L307.5 263.5L309.5 266L310 265.5L311 264.5L311.5 263L312 260.5V258.5H314.5V260L315.5 262.5L316.5 264.5L317.5 265.5L318.5 264L319.5 261.5L321 260V258H323.5L325 259.5V261.5V264H327L328.5 262.5V260.5V257H331V258.5L331.5 262.5L334 264L335 262.5V259.5V255.5H337V257L338.5 259.5L342.5 261.5V258V254H346.5H351.5V257V260.5V264V268H353L355 265.5L356 264L358 260.5V257V254H360.5V255.5V258L359.5 260.5L360.5 265.5L362 264L364 261.5L365.5 258V253L367 251V249L366 245L360.5 239L356 235.5L351.5 232.5L346.5 230.5H341.5L338.5 233.5H336H330H323.5L317.5 230.5L314 226L309.5 225H304.5L299.5 226L295.5 227H285.5L283.5 224L281 219L277.5 214.5L272.5 208.5L265 202.5L256.5 199L249 196L240 194.5H232.5L225 196L228 197.5L232.5 198.5L239.5 201.5L246 206.5L251.5 211L257 214.5L263 219L261.5 221L257 219L252.5 217.5L247 216.5L240 216L234 216.5H228L222.5 217.5L217.5 219L213 222H215H221L226 223L231 225L237 227L242 229.5L247 233.5L245 235.5H242L239.5 233.5L234 232.5H226H219L212 233.5L206.5 235.5L201 239H205.5H210.5H215L221 240L226 242L228 245L226 246.5L221 249H219H215H212L206.5 251L202.5 252.5L199 254L192 260L188.5 264L185.5 269L184.5 272.5L188.5 271L193.5 270L198 269H201V271L199 273.5L196 277.5H192L188.5 278.5L183.5 281L180.5 283.5L178 286L174.5 289L171 294L170 299L171 299.685L174.5 297.5L178 295.5L180.5 294H183.5V295.5L181.5 299L179 302.5L175.5 305.5L172.5 309L168.5 313L166 318L164.5 325V329.5L166 327.5L168.5 325L171 322.5V326L168.5 331.5Z" stroke="black"/>
<path d="M217.5 317L223.5 310H231L238.5 311.5L258.5 317L273.5 321L284.5 325.5L290 323L288 328.5C286.833 330 284.5 333.4 284.5 335C284.5 336.6 283.5 340.667 283 342.5L290 339L299.5 335L303.5 330.5L308 339L314 349.5L319 364L317.5 372L310.5 378.5L297 384L284.5 391.5L279.5 396L270 397.5L271.5 393.5L273.5 389.5L276.5 384L271.5 385L267.5 387.5L262 391.5L258.5 397.5H254.5V393.5V387.5V382H252L246.5 385L240 393.5L233.5 401.5H231V393.5L233.5 383L231 384L226.5 385L222.5 387.5L219 389.5L217.5 390L217 389.5L216 387C216.167 386.167 216.6 384.5 217 384.5C217.4 384.5 217.833 382.833 218 382L219.5 378.5L221.5 376L220.5 375H217.5L213.5 374.5H209V359.5V344L213.5 330.5L217.5 317Z" stroke="black"/>
<path d="M312 332.5L321 341.5L328.5 353L335.5 368.5L336.5 375.5L330.5 381L322.5 386.5L309.5 395L301 402L292.5 411.5L286.5 418L283 419.5L286.5 422L296.5 425L309.5 422L321 418L330.5 415L341.5 414L359.5 411.5C362.5 411.5 368.9 411.5 370.5 411.5C372.1 411.5 379.167 412.5 382.5 413L389 410C390.833 410 395 410 397 410C399.5 410 404.5 412 406 413C407.2 413.8 411.5 416.667 413.5 418L417 425L411.5 426.5H406L408 430.5L413.5 432.5L425 439L429 446.5L432 454V456.5L424 453H417L420 458L432 461.5L441.5 467L445.5 471.5" stroke="black"/>
<path d="M177.101 348.985C177.571 349.11 178.049 349.297 178.541 349.297C178.583 349.297 178.606 349.311 178.646 349.322C178.694 349.335 178.745 349.324 178.793 349.336C178.861 349.353 178.937 349.39 179.005 349.415C179.043 349.428 179.133 349.463 179.161 349.492C179.216 349.546 179.263 349.584 179.308 349.64C179.342 349.683 179.272 349.712 179.234 349.727C179.099 349.78 178.901 349.713 178.759 349.713C178.704 349.713 178.64 349.686 178.584 349.678C178.514 349.667 178.409 349.628 178.351 349.592C178.281 349.548 178.205 349.507 178.132 349.469C178.067 349.434 178.018 349.35 177.942 349.333C177.89 349.321 177.803 349.262 177.758 349.228C177.721 349.199 177.598 349.13 177.551 349.125C177.477 349.115 177.273 349.05 177.24 348.985" stroke="black" stroke-linecap="round" stroke-linejoin="round"/>
<path d="M199.613 349.661C199.981 349.534 200.331 349.346 200.679 349.183C200.836 349.11 201.001 349.077 201.153 348.985C201.191 348.962 201.24 348.961 201.282 348.946C201.325 348.931 201.361 348.899 201.404 348.885C201.491 348.855 201.581 348.826 201.669 348.794C201.824 348.738 201.959 348.637 202.111 348.586" stroke="black" stroke-linecap="round" stroke-linejoin="round"/>
<path d="M168.647 375.181C168.613 375.401 168.559 375.588 168.46 375.786C168.444 375.818 168.415 375.858 168.412 375.894C168.401 376.023 168.297 376.136 168.279 376.271C168.248 376.507 168.244 376.738 168.244 376.977C168.244 377.297 168.244 377.617 168.244 377.937" stroke="black" stroke-linecap="round" stroke-linejoin="round"/>
<path d="M169.353 377.5C169.055 377.326 168.847 377.114 168.621 376.887C168.57 376.837 168.489 376.752 168.452 376.693C168.415 376.632 168.338 376.641 168.311 376.559" stroke="black" stroke-linecap="round" stroke-linejoin="round"/>
<path d="M194.999 384.525C195.414 384.525 195.828 384.525 196.243 384.525" stroke="black" stroke-linecap="round" stroke-linejoin="round"/>
<path d="M167.5 383L168.5 377.5L173.5 380.5L177 382L181 383L184.5 384L188 385H192H197V389L196.5 393V397L197.5 401.5L198.5 406.5L200 411.5C199.5 411.833 198.4 412.5 198 412.5C197.6 412.5 195.5 413.5 194.5 414H190H181H173.5L170.5 413L168.5 405.5L167 400.5V396L166 388.5L167.5 383Z" fill="#FFCA56" stroke="black"/>
<path d="M308.5 259.5L306.5 261L307.5 263L308 264.5L309.5 266L310.5 265L312 263.5V260.5L312.5 258.5H310.5L308.5 259.5Z" fill="#C4C4C4" stroke="black"/>
<path d="M315 261.5V258.5L318 258H321L320.5 260L319.5 262.5L318 265.5L316 264L315 261.5Z" fill="#C4C4C4" stroke="black"/>
<path d="M363 253L360.5 254V258L359.5 261V262.5L360.5 266L362 264L364 262.5L365.5 258.5V255.5V253H363Z" fill="#C4C4C4" stroke="black"/>
<path d="M352 257.5V254H358V255.5V257.5V261L357 262.5L355.5 265L353 268H352V265V261V257.5Z" fill="#C4C4C4" stroke="black"/>
<path d="M326.5 257L324 258.5L325 259.5V262.5V264.5H327L329 262.5V261V257H326.5Z" fill="#C4C4C4" stroke="black"/>
<path d="M331 260V257L335.5 255.5V258.5V262.5L333.5 264L331 262.5V260Z" fill="#C4C4C4" stroke="black"/>
<path d="M337.5 258V256L339.5 255L343 254V256V258V262L341.5 261L339 260L337.5 258Z" fill="#C4C4C4" stroke="black"/>
<path d="M321 290L318.5 293.5H319L321 294H322.5H324.5L325 293V292V290.5L324.5 287.5L323 286L322 287.5L321 290Z" fill="#C4C4C4" stroke="black"/>
<path d="M326.5 294H325V292.5L325.5 291.5L326 290.5L326.5 290V288.5V287L327 287.5L327.5 288L328.5 289L329 289.5L330 290.5V291.5L329.5 293V294H328.5H326.5Z" fill="#C4C4C4" stroke="black"/>
<path d="M202 239H200L202 238L205 236L208.5 234.5L213 233.5L217 232.5H222H225.5H230H234H236.5L239.5 233.5L241 234.5L243 235.5L241 237L239.5 238L236 240L234 241.5C233 242.167 230.8 243.5 230 243.5C229.2 243.5 228.333 244.167 228 244.5L226 242L223.5 241L219 240L214 239H210H205H202Z" fill="#C4C4C4" stroke="black"/>
<path d="M220.5 249L223 248L222.5 250.5L220 252L217 254.5L213.5 257.5L210 261L205.5 265.5L201.5 269H198.5L194 270L189 271L184 273.5L184.5 271L186.5 267L189 263C190 262.167 192 260.3 192 259.5C192 258.7 194 257.5 195 257L199 254L202.5 252L208 250.5L211.5 249H215.5H220.5Z" fill="#C4C4C4"/>
<path d="M189.5 278.5L195.5 277.5L194 279.5L192.5 282.5L190.5 285.5L187.5 289.5L184 294H182.5H180.5L177.5 296L174 298L171 300L170 299V297.5L171 294L172 292L174.5 289.5L177 286.5L180.5 283.5L184.5 280L189.5 278.5Z" fill="#C4C4C4"/>
<path d="M220.5 249L223 248L222.5 250.5L220 252L217 254.5L213.5 257.5L210 261L205.5 265.5L201.5 269H198.5L194 270L189 271L184 273.5L184.5 271L186.5 267L189 263C190 262.167 192 260.3 192 259.5C192 258.7 194 257.5 195 257L199 254L202.5 252L208 250.5L211.5 249H215.5H220.5Z" stroke="black"/>
<path d="M189.5 278.5L195.5 277.5L194 279.5L192.5 282.5L190.5 285.5L187.5 289.5L184 294H182.5H180.5L177.5 296L174 298L171 300L170 299V297.5L171 294L172 292L174.5 289.5L177 286.5L180.5 283.5L184.5 280L189.5 278.5Z" stroke="black"/>
<path d="M174 306.5L179.5 302V305L177.5 309.5L174.5 315.5L172.5 321L171 323L168 325.5L164.5 329.5V324.5L166 318.5L168.5 313L171 310.5L174 306.5Z" fill="#C4C4C4" stroke="black"/>
<path d="M252.5 230L257 227H260.5L266.5 228L269.5 225L273 221.5L278.5 223L282.5 228L285.5 227L281.5 218.5L276 212L265.5 202.5L257 199.5L245.5 195.5L233 194L224.5 195.5L233 199.5L241 202.5L248 208L255.5 213L263 218.5L261.5 221.5L255.5 218.5L249.5 216.5H244H228.5L218.5 218.5L212.5 221.5H219.5L227 223L235.5 227L243 230L248 233.5L252.5 230Z" fill="#C4C4C4" stroke="black"/>
<path d="M409 415.5L404.5 412.5L401.5 413.5L402.5 420.5L404.5 428L409 436.5L415 446L418 458.5L421 462.5L424.5 468L430.5 473L433.5 480.5L436.5 485.5L440.5 493.5L444 500L448.5 507L450.5 514.5L455.5 526L458.5 537L459 552L465.5 555.5L470 558.5L469 554.5V548.5L465.5 543L461.5 537L458.5 535.5V532L462.5 534L469 535.5L467 531L461.5 523.5L455.5 517.5L450.5 510H455.5L464 513L459 502.5L454 498.5L444 495L441.5 492.5H450.5H459L455.5 488.5L448.5 482.5L441.5 477.5H433.5V474.5L439.5 472.5H445.5V470.5L439.5 466L433.5 462.5L426.5 460.5L419.5 458.5L418 453H424.5L431.5 456.5V453L429.5 447.5L426.5 441.5L421 436.5L415 432.5L407.5 430.5L405.5 426.5L412.5 426H416.5V423L412.5 418.5L409 415.5Z" fill="#C4C4C4" stroke="black"/>
<path d="M391 598V594.5V592.5H393L396 594.5L399.5 596.5L402 597.5L404.172 598.369L409.63 598.174L410.5 598L409 596.5L408 594.5L407.5 592.5H410.5H414.5L417 594.5H419.5L421.5 596L425.5 594.5L427.5 594L427 592.5L425.5 591L424.5 589.5L428.5 588.5L431 588H435.5H437L439 586L437 584.5L435.5 582.5L437 580L438 578.5H442H445L448 576L450 572L451.5 569.5H446.5L449.5 565.5L453.5 562L455 560.5V565.5L452 571.5L446.5 579L441.5 584.5L435 590.5L431 593L423.5 596L414.5 598L409.63 598.174L408 598.5H404.5L404.172 598.369L400.5 598.5H395L391 598Z" fill="#C4C4C4"/>
<path d="M391 598V594.5V592.5H393L396 594.5L399.5 596.5L402 597.5L404.5 598.5H408L410.5 598L409 596.5L408 594.5L407.5 592.5H410.5H414.5L417 594.5H419.5L421.5 596L425.5 594.5L427.5 594L427 592.5L425.5 591L424.5 589.5L428.5 588.5L431 588H435.5H437L439 586L437 584.5L435.5 582.5L437 580L438 578.5H442H445L448 576L450 572L451.5 569.5H446.5L449.5 565.5L453.5 562L455 560.5V565.5L452 571.5L446.5 579L441.5 584.5L435 590.5L431 593L423.5 596L414.5 598L400.5 598.5H395L391 598Z" stroke="black"/>
<path d="M292 234.5V232.5H296L300.5 236L304 237.5L301.5 242H296L292 238V237V234.5Z" fill="#E6E6E6" stroke="black"/>
<path d="M215 374.5L209 375L213.5 384.5L217 391L224 399L230.5 404H238.5L247 401.5L253.5 399.5L256.5 398H262L270 397.5L274 389L277 384L271 385L267.5 388L262 391.5L258.5 397.5H254.5V397V382L252 382.5L247 385L245 387.5L241 392L237 397L233.5 401.5H231V399V393.5L232 388.5L233.5 383L227 385L222.5 387.5L217.5 390L216 388.5L214.5 385.5L216 384L219 379.5L221.5 376L220 375L215 374.5Z" fill="#C4C4C4" stroke="black"/>
<path d="M615.699 306.5L620 315.5L615.699 314.5H610.967L606.666 317L603.655 320C602.364 321.667 599.783 325.3 599.783 326.5C599.783 327.7 598.063 331 597.203 332.5L594.192 341.5L590.75 351.5L587.309 357L582.148 360L575.265 362L567.953 363L561.071 363.5L563.651 365.5L568.383 367H573.115L576.986 365.5V369L573.545 374L570.104 377.5L564.512 381L560.64 382.5H555.049L551.177 381L549.887 383.5L548.166 386.5L545.155 390H539.133H534.402L529.24 387.5L525.799 383.5L522.358 378.5L520.637 371.5L519.347 365.5L515.906 360L512.465 357H507.303L503.432 358.5L499.56 360L502.571 361.5H506.013L510.314 364L512.465 367.5L514.185 371V375V377.5L512.465 381L510.314 385L507.303 386.5H503.432L504.722 385L506.013 383.5V379.5L503.432 377.5H499.56L494.399 379.5L490.097 383.5L486.226 387.5L480.634 392L476.763 393H468.16L459.987 388.5L453.965 379.5L451.385 376.5V377.5V381V386.5L452.675 390L457.407 395L463.429 396.5L468.16 395V399L464.289 402L457.407 405L449.234 404L440.631 399.5L435.9 394L433.749 388.5L432.889 383.5V377.5L430.738 378.5L428.157 381V383.5V389.5L431.598 393H428.157L423.856 392L420.845 388L419.984 382.5V377.5L416.113 378.5L408.801 379.5L401.918 378.5L395.466 374L391.165 368V362L392.885 356.5L395.896 352.5L400.628 351L404.069 353.5H401.918L398.477 355V360L401.918 363.5L410.521 364.5L418.694 358.5L422.995 348V339L418.694 325.5L407.94 311.5L396.757 302.5L384.713 296L370.948 290.5L358.904 288L346.86 284.5H352.452H364.066L362.776 283L358.044 279L350.732 273.5L346 268.5L364.496 267.5H380.841L404.499 266L411.381 263.5L417.403 261L423.856 257L432.028 251.5L437.62 246L441.491 240L444.072 233.5C444.502 232.667 445.363 230.8 445.363 230V225.5L444.072 220L442.352 215L438.911 212.5L436.76 211H433.749L432.028 211.5L430.308 214V218L428.587 217L427.297 215L425.576 213L425.146 209L426.867 204.5L429.447 201L433.319 199L437.62 198H441.491L445.363 199L450.954 202L455.256 208L456.546 210.5V208L459.127 202L465.149 197L471.601 195L478.484 196.5L472.892 199L470.311 203V209L471.601 214L475.042 209L478.484 205.5L484.075 201H492.678L499.991 202L506.443 206.5L510.314 212.5L511.604 218.5V225L512.465 232L515.476 234.5H520.207L522.358 232L523.218 227.5L525.369 231V235.5L523.218 239.5L520.207 242.5L525.369 244L530.1 247L535.692 252L540.854 259.5L543.865 267.5L546.876 276L550.747 283L557.63 288H565.372L569.673 285.5L573.545 279.5V270L569.673 266L565.372 265L566.662 264H569.673H575.265L579.567 267.5L583.868 272.5L585.589 279.5V289L582.578 295.5L578.706 300.5L571.394 306.5L562.361 307.5L554.188 306.5L550.317 304V306.5L550.747 311L552.468 317L556.339 324.5L563.651 331L573.545 330L581.287 326.5L586.449 320L590.75 313L597.203 306.5L603.655 303H609.246L615.699 306.5Z" fill="#F60612" stroke="black"/>
<path d="M381.139 256C381.139 256.591 381.681 258.205 380.572 258.71C379.979 258.979 380.02 259.733 379.551 260" stroke="white" stroke-linecap="round" stroke-linejoin="round"/>
<path d="M579.567 337.5L584.298 331.5V334L582.578 337.5L580.427 342L576.986 347.5L571.394 352.5L563.652 354.5L556.769 355L553.328 353.5L546.016 348.5L538.703 342L533.112 335.5L528.38 331L521.928 326.5L515.906 323.5L511.174 321H508.163H506.013L503.002 320.5L499.561 321L496.119 321.5L494.829 323.5L496.98 323H499.991H503.862L506.873 324.5L511.604 328L513.755 331.5H509.884L506.013 331L500.851 333.5L495.259 337.5L492.248 339.5L487.947 342L484.936 344.5L489.667 343.5L491.818 342.5L496.119 341L499.561 338.5L503.862 337.5L507.733 338.5L512.465 341L515.476 345L517.196 349L515.906 348.5L513.755 347.5L510.314 346.5L505.582 347.5L499.561 351L491.388 356L487.086 358.5H481.495L476.763 356L474.612 353.5L472.462 352V353.5L472.892 357.5L475.903 361.5L479.344 365L484.936 367H491.818L490.958 369L488.377 371.5L484.506 373.5L480.204 374.5H474.612L468.59 373.5L462.568 370.5L458.267 366L456.116 363.5L454.396 359.5L452.675 357V354.5V351L452.245 347.5L451.385 349L449.664 350.5L447.513 353.5L445.793 357L445.363 361.5V365L444.933 364L442.782 362L441.922 359.5L441.061 357L441.491 353.5V350.5L441.922 345.5L440.631 348L439.341 351.5C438.48 352.833 436.502 355.8 435.469 357C434.437 358.2 432.458 357.833 431.598 357.5C432.028 356.833 433.233 355.1 434.609 353.5C435.986 351.9 436.33 349.833 436.33 349V341.5L435.469 331L427.297 315.5L418.694 305L406.22 295.5L382.132 285L375.25 282.5L367.507 282C366.503 281.333 363.206 279.2 358.044 276C352.882 272.8 351.592 271 351.592 270.5H370.518L379.121 273.5L389.014 276.5H393.746L409.661 276L414.823 275L418.694 274L423.425 272.5L428.587 270L434.609 266L439.341 260.5L444.072 256L447.083 252L450.094 248.5L452.675 243L453.105 238.5L452.675 234.5V230.5L452.245 227L451.385 224.5H452.245L455.256 226L457.837 230L459.988 236V243L461.278 240.5L463.429 237L465.149 233.5C466.296 232.5 468.762 230.2 469.451 229C470.311 227.5 471.171 227.5 471.601 227C472.031 226.5 474.182 225.5 474.612 225.5C475.042 225.5 477.623 224.5 478.053 224C478.398 223.6 480.204 223.167 481.064 223L484.936 222.5L487.947 223L491.388 224L493.969 225.5L497.41 229L499.561 232.5H495.689H492.248L487.947 234.5L484.075 236C482.785 237.333 480.032 240.1 479.344 240.5C478.656 240.9 477.337 243.333 476.763 244.5L473.752 248.5L471.601 254L473.322 252C473.752 251.333 474.698 249.9 475.042 249.5L476.763 247.5L479.344 245L482.355 243L486.656 241.5L490.528 241L492.678 242L492.248 243L490.097 244L487.947 245L484.936 248.5L482.785 252L480.204 258.5L479.344 264L481.064 260.5L486.226 257L489.667 255L493.969 254L498.7 253.5H506.443L511.174 255L514.615 257L519.347 260.5C520.637 261.667 523.304 264.1 523.648 264.5C523.993 264.9 525.512 267 526.229 268L528.81 271.5L530.531 274.5L532.251 279V283L531.391 282L528.81 279.5L524.939 278L519.777 278.5L516.336 279L512.035 282L509.024 284.5L505.582 288L503.002 291.5L499.991 295.5L497.41 298.5L499.561 297.5L509.024 294.5L518.487 296L527.09 300.5L536.553 309L541.714 322L544.725 328L548.597 334.5L556.769 342.5L559.78 343H568.813L573.975 341L579.567 337.5Z" fill="#F5F24A" stroke="black"/>
<path d="M479.774 324L477.193 320.5L471.601 318L465.149 316.5L459.557 315H455.256L451.384 318H456.976L460.848 320.5L464.289 324L456.976 322L451.384 320.5L443.642 318L440.631 315L435.602 310.615L432.458 306L435.469 310.5L435.602 310.615L440.631 318C440.057 317.333 439.513 317.2 441.921 322C444.33 326.8 446.079 331.667 446.653 333.5L450.524 340L454.395 343.5L460.848 346.5H464.289L460.848 342L456.976 336.5L462.138 340L468.16 343.5H474.612L481.064 342L487.946 336.5L490.527 331L483.645 333.5L477.193 331L474.612 327.5L470.741 324.5L475.472 324H479.774Z" fill="#FF5400"/>
<path d="M479.774 324L477.193 320.5L471.601 318L465.149 316.5L459.557 315H455.256L451.384 318H456.976L460.848 320.5L464.289 324L456.976 322L451.384 320.5L443.642 318L440.631 315L435.469 310.5L432.458 306L440.631 318C440.057 317.333 439.513 317.2 441.921 322C444.33 326.8 446.079 331.667 446.653 333.5L450.524 340L454.395 343.5L460.848 346.5H464.289L460.848 342L456.976 336.5L462.138 340L468.16 343.5H474.612L481.064 342L487.946 336.5L490.527 331L483.645 333.5L477.193 331L474.612 327.5L470.741 324.5L475.472 324H479.774Z" stroke="black"/>
<path d="M537.413 324L538.703 333.5L534.402 328.5L530.53 324.5L527.089 321L521.067 316.5L515.045 315L506.873 313.5L500.421 315L493.968 316.5L487.946 318.5L490.527 315L493.968 312.5L499.13 310L505.152 307L513.325 305.5H518.486L524.939 308.5L531.391 315L537.413 324Z" fill="#FF770B" stroke="black"/>
<path d="M466.009 250.5V244.5L464.719 248L462.568 253C461.565 254.667 459.385 258 458.697 258C458.009 258 455.829 260.333 454.826 261.5L450.954 266L447.943 270.5L446.223 267L444.502 263.5V266L443.212 270.5L438.91 275L431.598 278L422.565 280.5L413.102 283.5L407.94 288.5H410.091H414.823L420.845 289.5L427.727 293L432.888 301L437.62 306L441.921 308.5H446.223L444.502 305L447.943 306L454.826 308.5L458.697 310L466.009 308.5C468.017 307.5 473.15 304.9 477.623 302.5C482.097 300.1 481.781 299.5 481.064 299.5L488.807 295.5H484.936H481.064V293L483.215 289.5L484.936 285L488.807 280.5L493.108 276.5L501.711 272.5L509.454 269.5L506.012 268H501.711L491.818 267L484.936 269.5L477.623 272.5L472.031 276.5L466.009 280.5L462.568 285V282V278L466.009 272.5L469.881 268L475.472 266H472.031H469.02L462.568 267L459.557 269.5V267L462.568 263.5L464.719 258L466.009 250.5Z" fill="#FD7B01" stroke="black"/>
</svg>
