<svg width="374" height="405" viewBox="0 0 374 405" fill="none" xmlns="http://www.w3.org/2000/svg">
<rect width="374" height="405" fill="#26A87C"/>
<rect x="102" y="90" width="170" height="170" rx="20" fill="white"/>
<path d="M220.785 186.379V177.05C220.785 174.769 218.936 172.919 216.654 172.919C214.373 172.919 212.523 174.769 212.523 177.05V201.926V209.68C212.523 214.232 216.214 217.922 220.766 217.922H235.4C237.837 217.922 240.149 216.844 241.715 214.977L257.941 195.635C259.271 194.05 259.077 191.69 257.506 190.344C256.037 189.085 253.854 189.14 252.452 190.472L247.233 195.425C246.682 195.948 245.774 195.562 245.768 194.803L245.572 168.808C245.572 166.526 243.723 164.677 241.441 164.677C239.16 164.677 237.31 166.526 237.31 168.808V181.801L220.785 186.379Z" fill="#FFCEBF"/>
<path d="M237.31 186.378V164.394C237.31 162.112 235.461 160.263 233.179 160.263C230.898 160.263 229.048 162.112 229.048 164.394V186.26L237.31 186.378Z" fill="#FFCEBF"/>
<path d="M229.048 186.378V168.808C229.048 166.526 227.198 164.677 224.917 164.677C222.635 164.677 220.786 166.526 220.786 168.808V188.738L229.048 186.378Z" fill="#FFCEBF"/>
<path d="M179.153 141.644V131.83C179.153 129.43 177.207 127.484 174.806 127.484C172.406 127.484 170.46 129.43 170.46 131.83V158.002V166.159C170.46 170.948 174.342 174.831 179.132 174.831H194.528C197.092 174.831 199.524 173.696 201.172 171.732L218.243 151.383C219.642 149.715 219.438 147.232 217.785 145.816C216.24 144.491 213.944 144.549 212.468 145.95L206.901 151.234C206.351 151.756 205.443 151.37 205.437 150.611L205.23 123.158C205.23 120.757 203.284 118.812 200.884 118.812C198.484 118.812 196.538 120.757 196.538 123.158V136.828L179.153 141.644Z" fill="#FFCEBF"/>
<path d="M196.537 141.644V118.514C196.537 116.114 194.591 114.168 192.191 114.168C189.791 114.168 187.845 116.114 187.845 118.514V141.068L196.537 141.644Z" fill="#FFCEBF"/>
<path d="M187.845 141.644V123.158C187.845 120.757 185.899 118.812 183.498 118.812C181.098 118.812 179.152 120.757 179.152 123.158V143.825L187.845 141.644Z" fill="#FFCEBF"/>
<path d="M170.46 257.109V180.611C170.46 177.418 173.048 174.83 176.241 174.83H197.867C201.06 174.83 203.649 177.418 203.649 180.611V257.109C203.649 258.705 202.354 259.999 200.758 259.999H173.351C171.754 259.999 170.46 258.705 170.46 257.109Z" fill="#26CE95"/>
<path d="M212.523 257.109V223.416C212.523 220.381 214.984 217.921 218.019 217.921H238.574C241.609 217.921 244.069 220.381 244.069 223.416V257.109C244.069 258.706 242.775 260 241.179 260H215.414C213.818 260 212.523 258.706 212.523 257.109Z" fill="#6FCF94"/>
<path d="M153.199 186.379V177.05C153.199 174.769 155.048 172.919 157.33 172.919C159.611 172.919 161.461 174.769 161.461 177.05V201.926V209.68C161.461 214.232 157.77 217.922 153.218 217.922H138.584C136.147 217.922 133.835 216.844 132.269 214.977L116.043 195.635C114.713 194.05 114.908 191.69 116.478 190.344C117.947 189.085 120.13 189.14 121.533 190.472L126.752 195.425C127.302 195.948 128.21 195.562 128.216 194.803L128.412 168.808C128.412 166.526 130.261 164.677 132.543 164.677C134.824 164.677 136.674 166.526 136.674 168.808V181.801L153.199 186.379Z" fill="#FFCEBF"/>
<path d="M136.674 186.378V164.394C136.674 162.112 138.524 160.263 140.805 160.263C143.087 160.263 144.936 162.112 144.936 164.394V186.26L136.674 186.378Z" fill="#FFCEBF"/>
<path d="M144.937 186.378V168.808C144.937 166.526 146.786 164.677 149.068 164.677C151.349 164.677 153.198 166.526 153.198 168.808V188.738L144.937 186.378Z" fill="#FFCEBF"/>
<path d="M161.461 257.11V223.417C161.461 220.382 159.001 217.922 155.966 217.922H135.41C132.375 217.922 129.915 220.382 129.915 223.417V257.11C129.915 258.707 131.209 260.001 132.806 260.001H158.57C160.167 260.001 161.461 258.707 161.461 257.11Z" fill="#6FCF94"/>
<path d="M157.33 170.75C156.645 170.75 155.985 170.861 155.367 171.065V168.806C155.367 165.333 152.542 162.507 149.068 162.507C148.315 162.507 147.592 162.64 146.921 162.884C146.244 160.137 143.76 158.093 140.806 158.093C137.852 158.093 135.368 160.137 134.691 162.884C134.02 162.64 133.297 162.507 132.544 162.507C129.07 162.507 126.244 165.332 126.244 168.79L126.071 191.788L123.026 188.897C120.809 186.794 117.388 186.707 115.068 188.696C112.606 190.806 112.298 194.543 114.382 197.027C114.939 197.69 130.639 216.462 131.204 217.015C129.124 218.387 127.747 220.743 127.747 223.415V257.832C127.747 259.029 128.718 260 129.915 260C131.113 260 132.083 259.029 132.083 257.832V232.218H159.293V257.832C159.293 259.029 160.264 260 161.461 260C162.658 260 163.629 259.029 163.629 257.832V223.416C163.629 220.851 162.36 218.577 160.419 217.186C162.395 215.29 163.629 212.626 163.629 209.678V177.049C163.63 173.576 160.804 170.75 157.33 170.75ZM159.294 227.882H132.084V223.416C132.084 221.581 133.576 220.089 135.411 220.089H155.967C157.801 220.089 159.294 221.581 159.294 223.416V227.882ZM159.294 209.678C159.294 213.028 156.569 215.753 153.219 215.753H138.585C136.785 215.753 135.088 214.962 133.931 213.582L117.705 194.24C117.141 193.569 117.225 192.559 117.89 191.988C118.517 191.451 119.443 191.475 120.042 192.043L125.261 196.997C126.138 197.829 127.424 198.062 128.537 197.588C129.651 197.115 130.375 196.028 130.385 194.818L130.581 168.806C130.581 167.724 131.462 166.843 132.544 166.843C133.627 166.843 134.508 167.724 134.508 168.806V186.377C134.508 187.575 135.478 188.545 136.676 188.545C137.873 188.545 138.844 187.575 138.844 186.377V164.392C138.844 163.31 139.724 162.429 140.807 162.429C141.889 162.429 142.77 163.31 142.77 164.392V186.377C142.77 187.575 143.741 188.545 144.938 188.545C146.135 188.545 147.106 187.575 147.106 186.377V168.806C147.106 167.724 147.987 166.843 149.069 166.843C150.152 166.843 151.032 167.724 151.032 168.806V186.377C151.032 187.575 152.003 188.545 153.2 188.545C154.398 188.545 155.368 187.575 155.368 186.377V177.049C155.368 175.966 156.249 175.086 157.332 175.086C158.414 175.086 159.295 175.966 159.295 177.049V209.678H159.294ZM202.115 173.897C202.805 173.238 219.244 153.563 219.905 152.776C222.057 150.21 221.74 146.349 219.197 144.17C216.8 142.115 213.265 142.205 210.976 144.378L207.583 147.598L207.399 123.158C207.399 119.566 204.477 116.644 200.885 116.644C200.06 116.644 199.272 116.799 198.545 117.08C197.889 114.176 195.291 112 192.192 112C189.093 112 186.494 114.176 185.839 117.08C185.112 116.799 184.324 116.644 183.499 116.644C179.907 116.644 176.985 119.566 176.985 123.158V125.692C176.303 125.449 175.571 125.316 174.807 125.316C171.215 125.316 168.292 128.238 168.292 131.83V166.159C168.292 169.277 169.618 172.09 171.733 174.07C169.656 175.505 168.292 177.902 168.292 180.612V257.832C168.292 259.029 169.263 260 170.46 260C171.658 260 172.628 259.029 172.628 257.832V189.759H201.481V257.832C201.481 259.029 202.452 260 203.649 260C204.846 260 205.817 259.029 205.817 257.832V180.612C205.817 177.79 204.338 175.309 202.115 173.897ZM172.628 131.83C172.628 130.629 173.605 129.652 174.807 129.652C176.008 129.652 176.985 130.629 176.985 131.83V141.644C176.985 142.841 177.956 143.812 179.153 143.812C180.35 143.812 181.321 142.841 181.321 141.644V123.158C181.321 121.957 182.298 120.98 183.499 120.98C184.7 120.98 185.678 121.957 185.678 123.158V141.644C185.678 142.841 186.648 143.812 187.846 143.812C189.043 143.812 190.014 142.841 190.014 141.644V123.158V118.514C190.014 117.313 190.991 116.336 192.192 116.336C193.393 116.336 194.37 117.313 194.37 118.514V123.158V141.644C194.37 142.841 195.341 143.812 196.538 143.812C197.736 143.812 198.706 142.841 198.706 141.644V123.158C198.706 121.957 199.684 120.98 200.885 120.98C202.086 120.98 203.063 121.957 203.063 123.174L203.27 150.628C203.279 151.837 204.004 152.924 205.118 153.398C206.231 153.871 207.517 153.639 208.394 152.806L213.961 147.523C214.634 146.885 215.671 146.859 216.375 147.462C217.122 148.102 217.215 149.236 216.583 149.989L199.512 170.339C198.273 171.816 196.457 172.662 194.529 172.662H179.133C175.546 172.662 172.629 169.745 172.629 166.159V131.83H172.628ZM201.481 185.423H172.628V180.612C172.628 178.619 174.249 176.998 176.242 176.998H197.868C199.86 176.998 201.481 178.619 201.481 180.612V185.423ZM259.603 197.027C261.686 194.543 261.379 190.806 258.917 188.696C256.597 186.708 253.176 186.794 250.959 188.898L247.914 191.788L247.741 168.806C247.741 165.333 244.915 162.507 241.441 162.507C240.688 162.507 239.965 162.64 239.295 162.884C238.617 160.137 236.133 158.093 233.179 158.093C230.225 158.093 227.741 160.137 227.064 162.884C226.393 162.641 225.67 162.507 224.917 162.507C221.444 162.507 218.618 165.333 218.618 168.806V171.065C218 170.862 217.34 170.75 216.655 170.75C213.181 170.75 210.355 173.576 210.355 177.049V209.679C210.355 212.626 211.589 215.29 213.565 217.186C211.624 218.578 210.355 220.851 210.355 223.416V257.832C210.355 259.029 211.326 260 212.523 260C213.721 260 214.691 259.029 214.691 257.832V232.218H235.397C236.594 232.218 237.565 231.247 237.565 230.05C237.565 228.852 236.594 227.882 235.397 227.882H214.691V223.416C214.691 221.581 216.184 220.089 218.018 220.089H238.574C240.409 220.089 241.901 221.581 241.901 223.416V257.832C241.901 259.029 242.872 260 244.069 260C245.267 260 246.237 259.029 246.237 257.832V223.416C246.237 220.743 244.861 218.387 242.781 217.015C243.35 216.457 259.05 197.686 259.603 197.027ZM240.055 213.582C238.898 214.961 237.201 215.753 235.401 215.753H220.767C217.417 215.753 214.692 213.028 214.692 209.678V177.049C214.692 175.966 215.573 175.086 216.655 175.086C217.738 175.086 218.619 175.966 218.619 177.049V186.377C218.619 187.575 219.589 188.545 220.786 188.545C221.984 188.545 222.954 187.575 222.954 186.377V168.806C222.954 167.724 223.835 166.843 224.918 166.843C226 166.843 226.881 167.724 226.881 168.806V186.377C226.881 187.575 227.851 188.545 229.049 188.545C230.246 188.545 231.217 187.575 231.217 186.377V168.806V164.392C231.217 163.31 232.097 162.429 233.18 162.429C234.263 162.429 235.143 163.31 235.143 164.392V186.377C235.143 187.575 236.114 188.545 237.311 188.545C238.509 188.545 239.479 187.575 239.479 186.377V168.806C239.479 167.724 240.36 166.843 241.443 166.843C242.525 166.843 243.406 167.724 243.406 168.823L243.602 194.818C243.611 196.028 244.336 197.115 245.45 197.588C246.563 198.061 247.849 197.829 248.727 196.996L253.945 192.043C254.545 191.474 255.47 191.45 256.097 191.988C256.762 192.559 256.845 193.569 256.282 194.24L240.055 213.582Z" fill="#333333"/>
<path d="M144.085 276.818H138.882L148.099 303H153.955L163.185 276.818H157.969L151.168 297.426H150.899L144.085 276.818ZM188.622 289.909C188.622 281.446 183.457 276.46 176.592 276.46C169.714 276.46 164.562 281.446 164.562 289.909C164.562 298.359 169.714 303.358 176.592 303.358C183.457 303.358 188.622 298.372 188.622 289.909ZM183.853 289.909C183.853 295.866 180.862 299.101 176.592 299.101C172.335 299.101 169.331 295.866 169.331 289.909C169.331 283.952 172.335 280.717 176.592 280.717C180.862 280.717 183.853 283.952 183.853 289.909ZM190.83 280.794H198.923V303H203.627V280.794H211.719V276.818H190.83V280.794ZM215.746 303H232.877V299.024H220.489V291.878H231.893V287.902H220.489V280.794H232.775V276.818H215.746V303Z" fill="white"/>
</svg>
